<?xml version="1.0" standalone="no"?>
<!DOCTYPE svg PUBLIC "-//W3C//DTD SVG 20010904//EN"
 "http://www.w3.org/TR/2001/REC-SVG-20010904/DTD/svg10.dtd">
<svg version="1.0" xmlns="http://www.w3.org/2000/svg"
 width="561.000000pt" height="561.000000pt" viewBox="0 0 561.000000 561.000000"
 preserveAspectRatio="xMidYMid meet">
<metadata>
Created by potrace 1.14, written by Peter Selinger 2001-2017
</metadata>
<g transform="translate(0.000000,561.000000) scale(0.100000,-0.100000)"
fill="#000000" stroke="none">
<path d="M2645 5066 c-99 -51 -242 -118 -415 -193 -249 -108 -605 -210 -900
-258 -52 -8 -106 -17 -120 -19 -14 -3 -68 -12 -120 -20 -141 -24 -152 -26
-184 -32 l-28 -6 6 -232 c4 -127 9 -256 11 -286 2 -30 6 -113 10 -185 8 -174
14 -278 20 -350 3 -33 8 -87 10 -120 9 -106 16 -159 25 -195 5 -19 11 -46 14
-60 2 -14 7 -43 11 -65 11 -57 83 -338 107 -415 45 -143 59 -186 67 -205 5
-11 24 -58 42 -105 19 -47 41 -101 51 -120 l16 -35 -344 -3 -343 -2 -20 -68
c-11 -37 -74 -247 -140 -467 -66 -219 -119 -400 -118 -402 2 -1 54 -3 117 -5
84 -2 114 -6 113 -15 -2 -7 4 -10 13 -6 11 4 12 8 4 13 -6 4 39 6 100 6 60 0
110 -4 110 -9 0 -4 -4 -5 -10 -2 -5 3 -18 1 -27 -5 -16 -10 -16 -10 2 -5 16 4
21 0 22 -16 1 -15 -1 -18 -10 -11 -7 6 -16 12 -22 14 -5 1 -9 8 -9 14 2 16
-67 8 -78 -8 -13 -21 -9 -33 5 -14 13 17 14 17 28 0 13 -16 12 -17 -4 -11 -11
4 -16 3 -12 -4 4 -5 16 -7 28 -3 19 6 20 5 8 -9 -9 -12 -18 -14 -30 -7 -12 6
-26 3 -47 -11 -16 -10 -24 -19 -19 -19 6 1 18 7 28 15 23 17 48 9 41 -13 -3
-9 4 -5 16 11 29 36 47 35 21 -2 -17 -24 -18 -31 -7 -46 10 -14 15 -15 21 -5
5 8 4 11 -2 7 -6 -4 -13 0 -17 8 -3 8 1 18 9 22 7 5 14 12 14 18 0 5 4 11 10
13 7 2 9 -4 5 -15 -5 -15 -4 -15 5 -3 8 11 7 18 -5 27 -9 6 -11 14 -5 17 5 4
19 -7 30 -23 25 -34 27 -49 6 -31 -8 7 -15 8 -15 4 0 -5 9 -15 21 -22 12 -8
18 -9 15 -4 -3 5 2 16 11 23 14 12 15 11 9 -11 -5 -19 -2 -16 12 9 11 19 22
29 25 24 4 -6 0 -19 -8 -29 -8 -10 -14 -23 -14 -29 0 -5 4 -2 10 8 6 9 14 15
20 12 5 -3 6 1 2 10 -5 15 -3 15 15 4 11 -7 19 -17 16 -21 -3 -4 2 -5 11 -2
12 5 8 12 -20 31 -19 13 -35 25 -35 27 0 1 13 3 29 3 20 0 28 -5 27 -16 -1 -9
6 -15 16 -15 14 1 17 -4 13 -25 -5 -22 -4 -23 4 -6 9 19 12 18 15 -5 0 -5 12
-17 26 -27 24 -17 25 -16 10 2 -14 17 -13 18 3 12 11 -4 16 -3 12 4 -4 5 -16
7 -28 3 -12 -3 -19 -3 -15 1 4 5 3 14 -3 22 -12 14 4 43 23 43 6 0 5 -7 -2
-15 -7 -9 -10 -18 -7 -21 3 -3 10 3 16 14 8 15 7 23 -4 32 -16 13 -20 30 -7
30 7 0 52 -65 52 -76 0 -4 -6 -1 -14 5 -10 9 -15 8 -19 -3 -4 -11 -1 -13 10
-9 10 4 14 2 10 -4 -3 -5 0 -10 8 -10 8 0 12 4 10 8 -7 10 22 31 48 34 12 1
37 -6 54 -16 18 -10 33 -14 33 -9 0 6 -4 10 -8 10 -5 0 -9 7 -9 15 0 18 13 20
20 3 4 -10 8 -10 15 1 8 11 11 11 16 0 4 -11 7 -11 12 -2 4 9 12 7 27 -7 19
-19 22 -19 30 -4 7 13 5 21 -7 29 -15 11 -15 13 -1 19 9 3 13 2 10 -4 -3 -6
-1 -10 5 -10 6 0 22 -11 36 -25 25 -25 26 -26 31 -5 5 17 8 19 15 8 6 -9 7 -6
3 9 -5 18 -3 22 9 17 8 -3 12 -12 9 -20 -3 -8 0 -14 7 -14 6 0 8 5 5 10 -3 6
-2 10 3 10 5 0 15 -11 22 -25 7 -14 15 -23 18 -20 3 2 -1 11 -7 19 -8 9 -8 16
-2 20 5 4 13 -3 16 -14 5 -17 10 -19 20 -10 27 22 65 18 98 -9 17 -14 27 -20
22 -12 -6 11 -4 13 9 8 11 -4 15 -3 11 4 -4 6 -13 8 -21 5 -7 -3 -16 -1 -19 4
-4 6 -1 10 5 10 7 0 10 7 6 15 -6 17 2 19 24 5 13 -8 13 -10 1 -10 -11 0 -10
-4 4 -14 16 -12 21 -10 41 13 13 14 24 21 24 15 0 -6 -7 -17 -15 -24 -8 -7
-15 -17 -15 -23 0 -6 7 -2 15 10 10 14 21 20 32 16 12 -5 15 -2 10 10 -4 9
-10 24 -13 32 -5 11 -2 13 10 9 9 -3 13 -10 10 -15 -3 -5 2 -12 11 -15 13 -5
14 -9 4 -15 -9 -5 -3 -8 16 -7 47 1 57 -1 50 -12 -3 -5 -13 -6 -22 -3 -15 6
-15 5 -3 -8 12 -14 16 -13 32 3 10 10 18 21 17 24 0 3 8 12 18 21 10 8 13 12
6 8 -8 -3 -11 1 -8 14 3 15 -1 19 -16 16 -13 -3 -17 0 -13 8 4 7 -2 4 -13 -6
-20 -17 -22 -17 -31 -1 -6 11 -11 13 -16 5 -4 -6 -2 -11 4 -11 6 0 8 -5 5 -11
-9 -14 -34 21 -27 39 4 11 6 11 13 0 7 -10 9 -10 9 1 0 11 4 9 15 -5 15 -19
15 -19 9 1 -5 16 -4 17 5 5 10 -13 12 -13 21 0 9 13 10 13 10 0 0 -13 1 -13
10 0 9 13 10 13 10 0 0 -12 2 -12 9 -2 6 11 10 10 15 -5 7 -17 8 -17 22 1 10
14 14 16 14 5 0 -8 3 -10 8 -4 4 6 14 11 22 13 11 2 10 -1 -3 -12 -13 -10 -15
-15 -5 -19 7 -2 18 5 24 16 10 17 12 18 17 3 4 -10 3 -15 -3 -11 -6 3 -10 1
-10 -4 0 -10 21 -16 42 -12 5 0 7 -4 5 -11 -2 -11 2 -13 36 -17 8 -1 7 -4 -3
-11 -8 -5 -11 -10 -6 -10 5 0 3 -7 -4 -15 -11 -13 -9 -15 11 -13 13 2 26 5 29
8 3 3 15 -5 26 -17 18 -17 19 -23 7 -27 -9 -4 -11 -2 -7 6 5 7 3 8 -6 3 -9 -6
-11 -4 -5 5 5 9 4 11 -4 6 -6 -4 -9 -11 -6 -16 3 -4 -2 -13 -10 -20 -17 -14
-19 -7 -5 20 9 16 8 19 -7 14 -15 -5 -16 -4 -3 6 10 8 11 10 2 8 -8 -2 -13 -7
-12 -12 2 -11 -22 -26 -32 -20 -4 3 -8 13 -8 22 0 15 2 15 10 2 5 -8 10 -10
10 -4 0 6 -7 17 -15 24 -11 9 -12 16 -4 26 8 9 5 15 -10 23 -24 13 -42 14 -22
2 19 -12 22 -51 4 -44 -7 3 -11 8 -8 12 7 12 -25 52 -36 45 -6 -3 -3 -11 7
-18 12 -9 14 -15 5 -20 -6 -4 -9 -12 -5 -17 3 -5 10 -6 16 -3 6 4 9 1 7 -5 -6
-18 -22 -16 -34 3 -7 12 -6 19 3 25 11 7 11 9 -2 14 -9 4 -15 3 -15 -1 3 -19
-2 -33 -11 -27 -5 3 -7 12 -3 20 6 18 -8 20 -25 3 -17 -17 -15 -31 3 -25 8 4
17 2 20 -3 6 -9 -8 -14 -28 -11 -15 2 -48 -20 -45 -30 2 -6 6 -9 10 -7 3 2 16
-8 27 -22 l22 -25 -17 27 c-9 15 -20 25 -25 22 -5 -3 -9 -1 -9 4 0 6 7 13 16
16 22 8 26 8 19 -4 -9 -15 4 -12 21 5 20 19 32 19 30 -1 0 -9 10 -23 24 -31
25 -14 25 -14 3 2 -31 24 -29 39 2 19 14 -9 25 -13 25 -10 0 4 9 2 20 -4 11
-6 18 -15 15 -21 -11 -17 5 -30 26 -19 14 8 19 7 19 -1 0 -6 9 -1 21 12 16 18
19 20 15 6 -3 -11 -2 -16 4 -12 6 3 10 1 10 -4 0 -6 -8 -11 -17 -11 -15 0 -16
-2 -3 -10 18 -11 32 7 24 31 -3 11 3 18 16 22 11 3 18 1 14 -4 -3 -5 6 -14 20
-21 14 -6 26 -16 26 -21 0 -6 3 -8 6 -4 8 8 34 -18 34 -34 0 -7 3 -9 6 -6 4 4
30 -12 58 -35 28 -23 53 -43 55 -45 2 -1 -2 -9 -8 -17 -9 -11 -9 -16 0 -22 7
-4 9 -3 5 4 -11 18 13 24 30 8 8 -9 20 -16 25 -16 6 0 7 -4 4 -10 -3 -5 -2
-10 3 -10 12 0 136 -81 140 -92 2 -5 8 -6 13 -2 5 3 9 0 9 -6 0 -6 4 -9 8 -6
5 3 20 -6 35 -20 14 -13 29 -24 33 -24 4 0 31 -14 61 -31 40 -23 51 -34 41
-40 -7 -5 -8 -9 -2 -9 5 0 16 6 23 12 11 11 12 8 7 -12 -6 -22 -6 -23 5 -6 11
17 13 17 35 -9 28 -33 30 -39 9 -31 -8 3 -15 1 -15 -4 0 -12 23 -13 34 -3 4 4
25 8 47 9 33 1 37 -1 27 -13 -9 -11 -7 -15 10 -20 12 -3 22 -9 22 -14 0 -5 5
-9 11 -9 8 0 8 5 -1 15 -7 8 -19 15 -27 15 -8 0 -11 5 -8 10 4 7 14 6 28 -2
12 -7 28 -11 35 -10 11 3 11 -2 2 -20 l-11 -23 19 22 c18 20 20 20 36 5 10
-10 16 -12 16 -4 0 7 -4 12 -10 12 -5 0 -10 5 -10 11 0 6 7 8 16 5 8 -3 13 -2
10 3 -3 5 1 12 10 15 11 4 14 1 10 -12 -4 -11 2 -22 14 -30 11 -7 20 -8 20 -3
0 5 -8 12 -17 15 -14 6 -14 8 5 22 12 8 26 12 32 9 5 -3 19 -1 31 5 19 11 20
10 14 -12 -5 -20 -4 -20 5 -5 14 22 5 38 -18 30 -16 -5 -16 -4 1 13 15 17 19
17 28 4 8 -12 9 -12 7 4 -2 10 2 21 8 23 8 3 10 -7 7 -31 -2 -18 0 -37 5 -40
5 -3 7 6 4 20 -3 17 0 24 8 22 22 -5 22 20 0 32 -17 9 -19 14 -9 26 6 8 16 14
21 14 6 0 6 -6 -1 -14 -9 -11 -8 -15 5 -20 12 -5 26 4 44 26 24 28 30 31 44
19 9 -7 13 -17 10 -22 -3 -5 -1 -9 4 -9 6 0 13 7 16 16 3 8 2 12 -3 9 -5 -3
-12 -1 -16 5 -6 10 8 15 30 10 6 -1 4 4 -2 11 -18 18 -16 34 2 19 8 -7 15 -20
15 -29 0 -13 2 -14 9 -2 6 10 3 20 -12 32 -26 22 -10 25 19 4 12 -8 25 -11 29
-7 4 4 5 -4 2 -17 -4 -17 -3 -21 5 -13 11 11 4 44 -9 40 -4 -1 -19 4 -32 11
-17 9 -26 10 -34 2 -6 -6 -15 -11 -21 -11 -6 0 -5 5 1 11 6 6 9 19 5 28 -5 14
-4 14 11 2 10 -8 20 -11 23 -8 4 3 13 -1 21 -9 9 -8 18 -12 21 -9 4 3 1 10 -7
14 -10 6 -9 10 4 15 24 9 25 8 19 -11 -4 -11 -3 -14 3 -7 4 6 16 13 26 17 18
7 24 27 6 27 -5 0 -7 -4 -4 -10 3 -5 -1 -10 -10 -10 -9 0 -14 4 -11 8 2 4 -4
8 -14 8 -10 0 -17 -3 -14 -7 2 -4 -3 -10 -12 -13 -12 -5 -15 -2 -9 11 4 10 8
24 8 31 0 16 14 16 20 0 2 -8 8 -9 13 -4 5 5 4 11 -4 13 -10 4 -10 8 -1 19 9
11 8 18 -1 29 -11 13 -9 15 8 12 24 -4 42 -17 23 -17 -7 0 -10 -4 -6 -9 3 -5
1 -12 -4 -16 -12 -7 -3 -35 11 -35 5 0 6 5 3 10 -3 6 -1 10 4 10 6 0 11 -5 11
-11 0 -5 4 -8 9 -5 5 4 11 1 13 -6 2 -6 12 -12 21 -14 9 -1 15 2 11 7 -3 5 -9
7 -14 4 -4 -3 -10 2 -13 9 -8 21 16 26 31 7 11 -14 12 -13 3 6 -9 17 -7 26 10
45 15 16 19 18 15 6 -3 -10 -9 -26 -12 -35 -3 -10 5 0 18 21 12 22 30 42 38
44 13 4 13 2 -1 -14 -23 -28 -31 -44 -22 -44 5 0 13 10 18 23 7 16 18 22 38
21 25 -1 26 0 12 16 -17 19 -20 40 -4 40 5 0 8 -4 5 -9 -3 -5 0 -14 8 -20 10
-9 15 -8 19 3 4 10 1 13 -9 9 -11 -4 -9 5 7 33 13 22 19 36 14 32 -4 -4 -15
-2 -23 4 -20 17 -42 19 -35 2 3 -7 8 -13 11 -12 19 2 32 -3 32 -13 0 -5 -4 -7
-10 -4 -5 3 -10 1 -10 -4 0 -6 -5 -11 -11 -11 -5 0 -8 4 -4 9 3 5 0 13 -6 17
-8 5 -9 3 -4 -7 5 -8 5 -11 0 -7 -4 4 -15 2 -23 -5 -13 -10 -14 -9 -7 2 5 8
-8 2 -28 -13 -25 -19 -37 -24 -37 -15 0 11 -2 11 -10 -1 -6 -10 -10 -11 -10
-2 0 6 -4 12 -8 12 -5 0 -9 -7 -9 -15 0 -8 5 -11 10 -8 6 3 7 1 3 -5 -3 -6 -2
-13 4 -17 7 -4 7 -13 0 -26 -6 -11 -8 -24 -4 -31 4 -6 1 -9 -7 -6 -8 3 -13 11
-12 17 2 6 -2 11 -8 11 -5 0 -7 5 -4 10 4 6 10 8 15 5 22 -14 17 15 -7 36 -14
13 -23 19 -20 13 3 -6 1 -11 -6 -12 -33 -3 -52 -11 -50 -21 2 -6 -2 -11 -8
-11 -6 0 -8 8 -5 17 4 11 -2 8 -14 -7 -12 -15 -18 -18 -14 -8 4 11 1 18 -6 18
-6 0 -9 -4 -5 -9 3 -5 0 -13 -6 -17 -8 -5 -9 -3 -4 7 5 8 -1 5 -13 -5 -26 -23
-30 -34 -4 -15 15 13 16 12 3 -3 -16 -21 -35 -24 -28 -5 3 8 -4 14 -16 15 -17
1 -18 -1 -8 -8 13 -7 13 -11 0 -26 -8 -10 -9 -15 -4 -12 6 4 11 -2 11 -13 0
-18 -2 -19 -12 -4 -11 14 -12 14 -18 -1 -3 -9 -13 -14 -21 -10 -8 3 -17 1 -20
-5 -4 -5 -11 -6 -17 -3 -7 4 -8 2 -4 -5 4 -6 12 -9 17 -6 5 4 9 2 9 -4 0 -18
-19 -22 -28 -5 -6 11 -11 13 -16 5 -4 -6 -2 -11 5 -11 7 0 9 -3 6 -6 -4 -4
-15 -1 -24 7 -17 13 -17 12 -4 -4 12 -16 12 -18 0 -15 -8 2 -14 -5 -14 -17 0
-13 -6 -19 -18 -17 -10 2 -17 -4 -17 -13 0 -9 -5 -13 -10 -10 -6 4 -8 10 -5
15 3 5 0 12 -6 16 -13 8 -29 -14 -23 -31 3 -6 -3 -18 -12 -26 -16 -12 -17 -12
-9 1 12 20 14 53 3 42 -8 -8 -15 -29 -17 -55 -1 -5 -6 -5 -11 -2 -6 4 -8 10
-5 15 3 5 0 12 -6 16 -8 4 -9 3 -5 -5 4 -6 3 -10 -2 -9 -5 2 -19 -8 -30 -22
-13 -15 -21 -20 -22 -11 0 11 -3 11 -17 0 -9 -8 -19 -14 -22 -14 -3 0 -6 -9
-5 -21 1 -16 -5 -21 -27 -21 -25 0 -27 3 -18 21 7 13 1 9 -15 -9 -14 -16 -25
-25 -26 -20 0 6 6 17 13 25 10 12 9 12 -5 2 -11 -9 -18 -10 -23 -2 -3 5 0 10
7 10 7 0 26 7 42 15 15 8 32 13 36 10 5 -3 10 -1 12 4 1 5 10 11 18 13 8 2 18
8 22 13 5 6 8 5 8 -2 0 -7 5 -13 10 -13 6 0 10 6 8 14 -2 8 -1 14 2 13 3 -1
16 8 29 20 13 12 28 20 32 17 4 -2 12 4 18 13 6 10 11 14 11 9 0 -5 9 -1 20 9
11 10 20 14 20 10 0 -5 7 0 15 11 8 10 15 15 15 11 0 -4 14 5 32 22 25 23 35
27 46 19 11 -9 13 -9 10 3 -2 9 23 37 60 68 34 28 62 48 62 44 0 -4 5 -1 11 7
9 12 10 12 5 -3 -4 -12 -2 -17 6 -14 7 2 13 15 12 29 -1 21 3 26 18 23 14 -3
18 0 14 11 -3 8 -2 13 3 9 5 -3 12 1 14 7 4 10 6 10 6 1 1 -7 6 -13 12 -13 6
0 8 7 5 16 -4 10 -2 13 6 8 8 -5 9 -2 5 9 -8 20 4 29 23 16 10 -6 11 -9 3 -9
-7 0 -13 -5 -13 -11 0 -5 5 -7 10 -4 9 6 14 -8 11 -28 -1 -5 8 -6 19 -2 18 6
25 -3 21 -28 -2 -12 14 -8 35 8 13 11 14 13 3 9 -22 -7 -32 22 -14 40 11 11
12 16 2 19 -12 5 48 2 68 -3 26 -6 27 2 2 15 -15 8 -35 12 -45 9 -15 -5 -15
-4 1 6 14 9 21 9 32 0 8 -6 19 -9 25 -5 5 3 11 1 11 -4 3 -26 4 -30 12 -37 4
-4 7 -2 7 4 0 7 5 12 11 12 5 0 8 -4 4 -9 -3 -5 0 -13 6 -17 8 -5 9 -3 4 6 -6
9 -4 11 4 5 9 -5 10 -10 2 -18 -16 -16 -13 -30 5 -23 10 4 14 1 11 -6 -2 -7
-11 -12 -20 -12 -9 1 -13 -4 -10 -12 7 -18 13 -18 29 4 20 25 18 46 -3 37 -15
-5 -16 -4 -5 7 10 10 17 7 37 -17 13 -17 24 -24 25 -17 0 6 -5 12 -11 12 -5 0
-7 4 -4 10 3 5 2 10 -3 10 -14 0 -10 29 6 35 10 4 12 0 8 -10 -3 -10 -2 -13 5
-10 6 4 10 1 8 -6 -1 -8 -1 -21 0 -29 1 -13 3 -13 10 -1 5 8 7 19 5 26 -3 6 4
20 16 30 11 10 20 13 20 7 0 -6 -4 -14 -10 -17 -5 -3 -10 -12 -10 -18 0 -7 9
-1 19 12 18 23 19 23 24 5 4 -17 5 -17 6 -1 0 10 -6 20 -14 23 -8 4 -13 10
-10 14 3 5 0 12 -6 16 -8 5 -9 3 -4 -6 6 -9 4 -11 -5 -5 -9 6 -11 4 -5 -5 5
-9 4 -11 -4 -6 -6 4 -18 3 -26 -4 -10 -8 -15 -8 -20 0 -5 8 -12 4 -22 -9 -8
-12 -19 -21 -25 -21 -7 0 -3 7 8 15 13 11 14 14 4 13 -8 -2 -18 -7 -21 -12 -4
-4 -10 -3 -13 3 -4 6 -2 11 4 11 6 0 8 4 5 10 -3 5 -11 10 -16 10 -6 0 -7 -5
-4 -10 3 -6 1 -10 -5 -10 -7 0 -10 6 -7 13 2 6 12 12 22 12 18 0 28 13 39 48
3 10 10 15 16 12 5 -3 10 1 10 9 0 9 5 16 10 16 7 0 7 -7 0 -20 -6 -11 -15
-18 -21 -15 -5 4 -9 -3 -9 -14 0 -11 -5 -23 -10 -26 -6 -4 -8 -11 -5 -16 7
-11 26 -12 24 -1 -1 4 -1 13 0 21 1 11 4 11 17 0 15 -12 16 -11 10 9 -5 14 -3
22 4 22 6 0 9 -4 6 -8 -2 -4 4 -13 15 -20 21 -13 26 -3 7 16 -9 9 -9 12 0 12
7 0 12 -5 12 -11 0 -7 21 9 46 35 45 45 74 65 40 27 -16 -17 -15 -19 10 -35
14 -10 28 -15 31 -12 3 2 -4 10 -15 17 -17 11 -18 15 -6 26 7 7 11 19 8 27 -3
7 3 19 12 27 10 8 15 9 11 2 -4 -7 0 -16 10 -22 10 -6 13 -11 7 -11 -5 0 -15
5 -22 12 -9 9 -12 9 -12 1 0 -26 64 -41 77 -18 5 7 17 15 28 17 13 2 19 11 18
23 -1 11 0 14 3 8 3 -7 10 -13 15 -13 6 0 8 4 5 9 -7 11 13 9 32 -2 7 -5 12
-3 12 4 0 7 6 4 14 -7 12 -16 17 -17 28 -6 11 11 10 12 -4 7 -10 -4 -18 -3
-18 2 0 5 20 9 44 9 25 0 42 -4 40 -8 -3 -5 -10 -5 -16 -2 -7 4 -8 2 -4 -4 9
-15 12 -15 30 4 9 8 16 11 16 5 0 -6 5 -11 11 -11 5 0 8 4 5 8 -2 4 6 8 19 8
13 0 21 -4 19 -8 -3 -4 0 -8 5 -8 6 0 11 4 11 9 0 11 43 9 52 -4 13 -18 -4
-26 -18 -8 -10 13 -13 14 -11 3 2 -8 2 -12 0 -7 -3 4 -9 7 -14 7 -6 0 -7 -5
-3 -11 4 -8 0 -8 -15 0 -12 7 -21 8 -20 4 3 -20 -2 -34 -11 -28 -7 4 -6 14 1
28 9 20 9 21 -4 4 -10 -12 -17 -15 -22 -7 -5 8 -13 6 -26 -6 -17 -15 -19 -15
-25 0 -3 9 -11 13 -16 10 -6 -4 -5 -10 3 -16 11 -8 10 -9 -3 -4 -11 3 -15 1
-12 -8 3 -8 0 -17 -6 -21 -6 -4 -8 -16 -4 -28 7 -22 6 -22 -15 -3 -21 19 -21
19 -1 33 11 8 18 19 15 24 -10 15 -28 10 -22 -6 5 -12 2 -12 -19 -3 -15 7 -20
14 -13 18 8 6 8 9 0 14 -10 6 -15 -6 -12 -26 0 -5 -4 -8 -9 -8 -6 0 -10 7 -10
15 0 8 -4 15 -10 15 -5 0 -7 -8 -4 -17 5 -15 4 -16 -5 -3 -7 10 -11 11 -11 3
0 -7 -7 -10 -17 -7 -16 5 -16 4 -3 -6 13 -10 12 -11 -3 -6 -10 3 -16 2 -13 -2
2 -4 1 -14 -5 -22 -6 -10 -9 -11 -9 -2 0 6 -7 12 -15 12 -8 0 -15 -4 -15 -10
0 -5 4 -9 9 -7 11 3 13 -7 5 -28 -6 -14 -8 -13 -21 2 -8 10 -11 12 -7 3 4 -8
4 -12 -1 -8 -4 4 -14 3 -22 -3 -10 -9 -13 -8 -13 0 0 7 -5 9 -11 5 -8 -4 -7
-9 2 -16 11 -8 10 -9 -2 -5 -9 3 -26 -3 -38 -14 -17 -16 -21 -17 -21 -4 0 8 7
15 16 15 8 0 12 5 9 10 -4 7 -12 7 -24 0 -10 -5 -21 -6 -25 -3 -3 3 -6 1 -6
-5 0 -7 4 -12 8 -12 5 0 14 -11 22 -24 12 -22 40 -26 40 -5 0 4 -8 5 -17 2
-16 -6 -16 -5 -4 10 13 17 15 16 34 -4 23 -24 49 -11 28 15 -8 10 -9 16 -1 21
5 3 10 2 10 -4 0 -18 41 -34 54 -21 8 9 7 11 -4 10 -26 -4 -40 0 -40 10 0 5
14 8 31 6 37 -4 69 3 69 16 0 5 -4 6 -10 3 -5 -3 -18 -1 -27 4 -19 11 -19 11
16 15 15 2 25 -3 28 -14 5 -19 43 -46 43 -30 0 5 -5 10 -11 10 -5 0 -7 5 -4
10 4 7 12 7 18 2 17 -12 55 -13 63 -1 4 6 10 6 19 -1 7 -6 19 -9 26 -8 8 2 13
-3 12 -9 -2 -7 2 -13 7 -13 13 0 13 17 0 25 -8 5 -7 11 1 21 13 15 39 15 52
-1 5 -6 7 -4 4 5 -2 8 -10 14 -16 13 -6 -2 -11 2 -11 7 0 6 6 10 13 10 20 0
36 -21 30 -39 -4 -15 -4 -15 6 0 13 21 68 20 81 -1 5 -8 10 -10 10 -5 0 6 -5
16 -12 23 -9 9 -9 12 0 12 7 0 15 -6 18 -14 3 -8 12 -12 19 -10 7 3 16 1 20
-5 3 -7 -3 -11 -17 -12 -18 -1 -19 -2 -5 -6 11 -3 29 5 44 19 l25 23 19 -24
c11 -13 22 -22 24 -19 3 2 -4 14 -15 26 -25 26 -25 27 0 29 11 1 18 -2 16 -6
-9 -14 11 -32 27 -25 9 3 14 10 11 15 -12 20 16 7 34 -15 13 -17 23 -22 33
-15 11 7 11 9 -3 9 -20 0 -22 8 -9 29 6 9 11 10 15 2 4 -6 4 -11 -1 -11 -4 0
-1 -5 9 -10 18 -11 51 -3 43 10 -6 10 5 40 14 40 4 0 8 -13 8 -30 0 -21 -5
-30 -16 -30 -13 0 -14 -2 -2 -9 10 -6 21 0 38 20 14 16 29 29 35 29 7 0 6 -5
-1 -14 -9 -10 -8 -15 4 -20 19 -7 47 3 39 15 -12 20 16 7 34 -15 13 -17 23
-22 33 -15 11 7 10 9 -5 9 -12 0 -16 5 -12 16 3 9 6 18 6 20 0 3 5 2 10 -1 6
-4 8 -10 5 -15 -3 -5 4 -11 15 -15 11 -3 20 -11 20 -16 0 -6 -4 -7 -10 -4 -6
3 -7 -1 -3 -10 5 -13 7 -14 14 -3 5 7 6 20 4 29 -3 9 2 22 11 30 15 12 16 11
9 -10 -5 -16 -4 -21 4 -17 6 4 11 15 11 24 1 22 28 58 37 49 3 -4 -2 -16 -12
-27 -10 -11 -15 -23 -12 -27 4 -3 7 -1 7 6 0 9 4 9 14 -1 8 -7 11 -17 8 -23
-3 -5 1 -4 10 3 14 11 18 10 27 -5 6 -10 11 -13 11 -6 0 6 -5 15 -10 18 -6 4
-8 11 -5 16 7 11 26 12 24 2 -5 -28 1 -33 24 -20 12 8 32 13 44 12 15 -2 20 2
15 13 -4 10 -1 13 7 8 7 -5 11 -16 8 -26 -3 -13 0 -17 9 -13 10 4 11 10 3 24
-6 13 -6 19 0 19 9 0 31 -31 31 -44 0 -3 -8 -6 -17 -6 -15 0 -15 -2 -4 -9 10
-7 20 -2 33 15 19 23 46 35 33 14 -3 -5 -1 -10 4 -10 6 0 11 5 11 11 0 5 5 7
10 4 6 -3 10 -2 10 4 0 5 -8 10 -17 10 -42 1 -53 5 -50 15 3 6 11 9 18 7 8 -2
34 -4 59 -5 48 -1 74 -12 65 -27 -4 -5 -2 -9 3 -9 5 0 8 21 7 48 -1 26 3 50 9
55 6 4 0 6 -13 4 -14 -2 -27 -9 -29 -15 -2 -7 -9 -9 -14 -6 -6 4 -9 3 -6 -2 3
-5 -3 -17 -14 -26 -21 -21 -26 -1 -5 21 10 11 8 11 -10 0 -12 -7 -20 -16 -17
-20 2 -4 -1 -11 -7 -15 -8 -4 -9 -3 -5 4 4 7 2 12 -3 12 -6 0 -10 5 -8 11 1 6
-7 13 -18 15 -22 3 -48 -14 -40 -26 3 -5 1 -11 -4 -14 -5 -3 -12 1 -15 9 -3 9
1 18 9 21 8 4 13 9 11 13 -3 4 13 7 35 7 21 0 39 -4 39 -8 0 -4 5 -8 11 -8 5
0 8 4 5 9 -4 5 2 8 11 6 22 -3 53 12 53 26 0 6 -5 7 -12 3 -6 -4 -8 -3 -5 2 3
6 2 16 -3 24 -5 9 -4 20 3 28 9 11 7 17 -7 27 -9 7 -18 19 -20 27 -1 7 -6 19
-10 27 -6 9 -5 12 1 8 6 -4 14 1 17 10 5 12 9 14 18 5 7 -7 16 -12 22 -12 5 0
1 6 -10 14 -13 10 -23 11 -31 4 -14 -11 -36 -1 -28 12 3 5 -1 23 -10 40 -19
36 -8 73 14 47 8 -10 9 -17 1 -22 -5 -3 -10 -1 -10 6 0 7 -2 10 -5 7 -3 -3 0
-17 6 -32 11 -24 13 -24 25 -8 10 13 13 14 14 3 0 -8 -8 -23 -17 -34 -18 -19
-17 -19 5 -6 16 10 22 21 19 37 -3 14 2 26 12 32 9 5 12 10 7 10 -6 0 -20 -10
-33 -22 -13 -12 -23 -17 -23 -11 0 5 9 18 20 28 11 10 20 23 20 28 0 6 -7 2
-16 -9 -14 -17 -15 -17 -10 -1 3 10 -3 26 -15 38 -12 12 -19 15 -18 7 3 -25
-1 -38 -12 -38 -6 0 -9 7 -6 15 4 8 2 17 -4 21 -6 3 -8 12 -5 20 3 8 1 14 -4
14 -5 0 -8 9 -7 19 0 11 4 18 7 16 3 -2 11 5 18 16 12 19 6 25 -22 20 -5 -1
-6 5 -3 12 3 9 -1 14 -11 13 -9 0 -17 5 -18 12 -1 6 -2 13 -4 15 -8 11 -6 37
5 41 10 3 12 -5 10 -30 -1 -23 1 -32 8 -25 5 5 15 7 22 5 7 -3 16 0 20 6 4 6
1 11 -6 9 -26 -3 -39 1 -39 12 0 6 9 8 20 4 20 -6 20 -5 -2 17 -13 13 -24 20
-26 16 -2 -5 -11 -8 -20 -7 -12 0 -13 2 -4 6 10 4 10 7 -2 17 -8 6 -17 25 -20
41 -2 17 -5 30 -6 30 -1 0 -3 7 -5 15 -1 8 -14 51 -28 95 -14 44 -33 106 -42
137 l-16 58 -242 2 c-195 2 -241 6 -239 16 1 8 -2 11 -8 7 -6 -3 -8 -10 -5
-15 3 -4 -11 -8 -30 -8 -24 0 -33 4 -28 11 4 7 -1 6 -10 -2 -9 -7 -17 -9 -17
-4 0 15 22 32 34 27 7 -3 21 6 32 18 l19 23 -23 -19 c-12 -11 -25 -16 -29 -13
-3 4 -12 2 -20 -4 -16 -14 -18 2 -2 18 6 6 17 9 24 7 7 -3 16 -1 20 5 7 13
-22 10 -44 -3 -11 -7 -13 -5 -8 8 4 10 7 19 7 21 0 2 8 2 18 0 9 -1 11 0 5 2
-17 6 -16 13 3 34 12 13 13 22 5 38 -6 11 -7 22 -2 25 4 3 13 -5 19 -18 8 -18
7 -29 -4 -45 -8 -11 -11 -21 -5 -21 5 0 13 9 16 20 7 21 27 29 23 9 -2 -6 3
-13 10 -14 7 -2 8 -1 2 2 -5 2 -8 9 -4 14 3 5 -2 12 -11 15 -14 6 -14 8 1 25
9 11 12 19 6 19 -6 0 -12 -6 -15 -12 -2 -7 -8 -10 -12 -6 -4 4 -2 14 5 23 7 9
8 15 2 15 -6 0 -12 -4 -14 -8 -1 -4 -11 0 -21 11 -17 17 -16 18 25 13 32 -4
39 -3 25 5 -9 6 -21 8 -26 5 -5 -3 -11 0 -14 7 -4 10 4 14 24 14 15 0 25 -5
22 -10 -3 -5 8 1 26 14 36 27 42 38 7 16 -23 -15 -36 -13 -36 5 0 5 4 7 9 4 5
-3 20 3 33 14 14 11 28 17 30 14 3 -3 8 2 11 10 4 9 1 18 -5 22 -6 4 -8 3 -5
-2 3 -6 -3 -15 -13 -22 -16 -10 -21 -9 -28 6 -5 9 -8 22 -6 27 2 6 -6 15 -18
20 -12 6 -24 17 -26 25 -4 12 -1 11 15 -2 22 -20 33 -23 33 -7 0 5 -4 8 -9 5
-5 -3 -14 0 -20 7 -8 11 -5 14 19 14 17 0 27 -5 23 -10 -3 -6 5 -2 19 9 17 12
22 22 15 26 -6 4 -17 2 -24 -4 -8 -6 -16 -8 -19 -5 -3 3 3 12 15 19 12 7 21
17 21 22 0 4 -7 3 -15 -4 -9 -7 -18 -10 -21 -7 -3 3 6 13 20 22 19 13 25 24
22 46 -4 33 5 37 29 13 9 -9 18 -14 22 -11 3 3 -9 14 -26 25 -17 10 -28 22
-24 25 3 4 12 2 20 -5 10 -8 17 -8 26 1 9 10 8 12 -7 9 -10 -1 -21 3 -23 10
-3 8 2 10 14 6 10 -3 14 -2 8 3 -6 4 -9 31 -8 58 5 74 5 76 20 70 8 -3 17 -5
19 -5 3 0 3 -4 -1 -9 -3 -5 -1 -12 4 -15 20 -13 4 24 -19 44 -23 19 -23 20 -5
18 11 -2 23 -7 27 -13 4 -5 10 -6 14 -3 3 4 -6 18 -21 30 -26 23 -26 25 -9 38
16 13 17 13 11 -2 -3 -10 -1 -20 5 -24 7 -4 8 -3 4 4 -4 7 -2 12 5 12 8 0 8 4
-1 16 -11 13 -10 16 8 21 12 3 22 10 22 15 0 6 -11 3 -24 -5 -21 -14 -26 -14
-45 -1 -25 18 -42 11 -35 -14 5 -16 5 -16 -5 0 -6 9 -9 22 -6 30 6 15 55 21
52 6 -4 -19 19 -19 41 0 24 21 31 42 7 22 -16 -14 -21 0 -5 16 6 6 5 15 -1 24
-9 12 -10 12 -5 -3 4 -13 -2 -20 -20 -27 -32 -13 -31 -13 -31 5 0 11 7 14 21
9 17 -4 18 -3 6 5 -10 7 -11 11 -3 11 8 0 12 16 12 43 0 60 3 77 13 77 4 0 8
9 8 21 0 11 4 18 9 15 5 -3 12 2 16 11 3 10 1 19 -4 21 -6 2 -9 8 -5 13 3 5 0
8 -7 7 -6 -2 -14 3 -16 10 -3 8 1 10 11 6 9 -3 16 -1 16 6 0 6 -4 8 -10 5 -5
-3 -10 -2 -10 4 0 15 42 51 51 45 5 -3 6 3 2 12 -5 13 -3 15 7 9 9 -6 11 -4 5
4 -5 9 -12 7 -27 -9 -11 -12 -23 -18 -27 -15 -3 4 6 17 21 30 15 13 24 26 21
29 -9 9 -25 7 -20 -1 3 -5 -1 -14 -9 -20 -7 -7 -15 -9 -19 -4 -3 5 -1 13 5 16
8 5 7 12 -2 22 -11 14 -10 15 12 9 18 -5 21 -5 10 3 -8 5 -11 13 -7 17 3 4 13
1 22 -6 9 -7 15 -8 15 -2 0 6 -6 12 -12 15 -10 3 -9 8 2 22 9 11 10 16 3 11
-7 -4 -13 -2 -13 3 0 6 -5 11 -11 11 -8 0 -8 -4 0 -14 8 -10 8 -16 -2 -25 -14
-11 -27 -6 -27 11 0 5 6 6 13 2 9 -6 9 -4 -1 8 -11 14 -10 18 6 27 11 6 23 7
27 3 3 -4 5 -1 3 7 -1 7 2 15 9 18 7 3 10 -4 7 -19 -4 -21 -4 -21 5 -3 14 31
-5 40 -37 16 -37 -26 -37 -26 -39 -1 -1 11 2 18 7 15 5 -3 20 0 34 7 22 12 23
14 8 28 -14 13 -15 12 -9 -4 5 -12 3 -16 -5 -14 -19 7 -16 38 5 75 16 29 16
32 2 27 -14 -6 -14 -3 -4 20 7 14 16 26 21 26 5 0 8 6 7 13 -3 23 1 38 9 33 4
-2 9 5 9 17 2 20 1 21 -11 5 -7 -10 -16 -15 -20 -11 -4 4 -4 -1 -1 -12 7 -20
6 -20 -10 0 -9 12 -11 21 -5 23 5 2 10 10 10 17 0 8 10 21 22 29 12 9 18 19
14 23 -4 4 -10 3 -14 -2 -4 -6 -16 -11 -27 -13 -18 -2 -17 0 5 19 14 12 24 26
22 30 -1 5 2 9 8 9 5 0 10 5 10 11 0 8 -5 8 -15 -1 -18 -15 -20 1 -2 19 10 11
10 13 0 7 -7 -4 -13 -3 -13 3 0 5 8 15 18 20 16 9 15 11 -5 26 -27 19 -29 32
-8 55 16 18 13 19 -38 21 -16 0 -17 3 -5 17 9 13 7 12 -10 -2 -27 -24 -36 -18
-14 9 21 25 54 33 46 10 -9 -22 24 -31 42 -11 8 9 9 11 2 6 -16 -13 -38 -13
-38 1 0 5 4 8 9 5 5 -3 14 1 21 9 9 10 9 15 1 15 -6 0 -11 -5 -11 -12 0 -6 -3
-8 -7 -4 -13 12 -9 30 9 50 10 10 14 24 11 29 -4 6 0 8 11 4 11 -5 15 -3 10 5
-5 7 -2 9 8 6 8 -4 15 0 15 7 0 11 -6 11 -29 -1 -16 -8 -26 -18 -24 -23 3 -4
-4 -15 -15 -24 -10 -9 -19 -16 -20 -14 -3 8 -11 45 -13 62 -2 11 -4 22 -5 24
0 3 -8 -4 -17 -15 -15 -19 -16 -19 -9 1 4 11 8 26 8 33 0 12 3 13 30 16 6 0
12 11 13 23 1 15 -3 20 -14 15 -11 -4 -12 -7 -4 -10 7 -2 12 -9 12 -14 0 -6
-3 -8 -6 -5 -4 3 -16 1 -28 -5 -11 -7 -25 -11 -30 -10 -5 2 -4 -4 3 -12 10
-11 10 -20 1 -37 -8 -14 -8 -19 -1 -15 6 4 11 2 11 -4 0 -7 -7 -10 -17 -6 -11
4 -8 -2 7 -14 14 -11 18 -18 9 -14 -10 3 -20 0 -25 -7 -4 -7 -3 -10 4 -6 5 4
17 4 26 1 12 -5 13 -9 4 -24 -14 -22 -30 -16 -21 8 3 9 3 14 -1 11 -4 -4 -9
-16 -11 -28 -3 -15 0 -19 8 -14 9 5 9 3 0 -8 -10 -12 -10 -18 0 -29 10 -10 9
-12 -3 -6 -8 4 -6 0 5 -10 14 -11 15 -15 4 -11 -9 3 -16 0 -16 -8 0 -7 6 -11
12 -9 6 3 12 -2 12 -11 0 -17 -6 -18 -24 -7 -12 8 -11 180 2 222 5 16 4 20 -5
15 -9 -6 -9 -3 -1 14 8 15 8 21 1 21 -7 0 -8 6 -3 14 4 8 7 59 5 114 l-3 99
-52 12 c-29 6 -158 29 -287 51 -129 22 -246 42 -260 45 -71 14 -110 23 -220
50 -8 2 -40 11 -70 20 -30 9 -68 20 -85 24 -28 8 -162 54 -195 68 -8 3 -18 7
-22 7 -3 1 -10 4 -14 9 -4 4 -14 7 -21 7 -8 0 -39 11 -69 25 -30 14 -59 25
-65 25 -6 0 -8 4 -5 9 4 5 -2 8 -11 7 -18 -3 -103 32 -114 47 -3 5 -10 8 -15
8 -21 -2 -44 11 -38 21 4 6 2 8 -4 4 -10 -6 -98 31 -245 105 -43 21 -88 39
-100 38 -12 0 -67 -24 -122 -53z m2072 -822 c-3 -4 -2 -15 4 -25 7 -14 6 -19
-4 -19 -8 0 -17 3 -20 6 -7 7 10 44 20 44 3 0 3 -3 0 -6z m23 -69 c7 -8 9 -15
4 -16 -5 0 -17 -2 -27 -4 -14 -3 -16 0 -8 9 6 7 8 16 4 19 -3 4 -2 7 4 7 6 0
16 -7 23 -15z m-40 -39 c0 -2 -8 -10 -17 -17 -16 -13 -17 -12 -4 4 13 16 21
21 21 13z m13 -50 c4 -10 1 -13 -8 -9 -8 3 -12 9 -9 14 7 12 11 11 17 -5z m40
0 c7 3 4 -1 -6 -9 -16 -13 -16 -16 4 -41 17 -21 18 -30 9 -41 -6 -8 -9 -18 -6
-24 3 -5 -3 -20 -15 -32 l-20 -24 6 25 c5 21 4 22 -5 7 -16 -26 -2 -42 20 -22
11 10 20 12 24 6 4 -5 -3 -12 -14 -16 -11 -3 -20 -11 -20 -17 0 -7 -5 -6 -14
1 -10 8 -16 9 -21 1 -3 -6 -11 -8 -16 -5 -5 4 -9 1 -9 -4 0 -11 8 -13 61 -14
26 -1 26 -2 12 -24 -20 -30 -37 -30 -23 0 10 20 10 20 -3 5 -17 -21 -28 -23
-24 -5 1 6 -4 11 -10 10 -7 -2 -13 2 -13 8 0 5 -5 7 -10 4 -6 -4 -1 -14 12
-25 13 -11 18 -19 13 -20 -6 0 -16 5 -21 10 -7 7 -11 6 -11 -4 0 -8 5 -13 10
-9 5 3 4 -4 -2 -14 -6 -11 -7 -23 -3 -27 3 -4 -2 -4 -13 0 -11 5 -14 9 -7 12
7 2 12 8 12 13 0 6 -6 7 -12 3 -10 -6 -10 -4 -2 7 5 8 10 48 9 91 0 42 3 74 7
72 11 -7 10 4 -1 25 -9 15 -6 17 22 15 18 -1 40 -3 50 -3 9 -1 17 -5 17 -10 0
-10 -19 -9 -36 2 -10 6 -22 -8 -29 -35 -2 -5 -4 -10 -5 -13 -7 -13 -5 -32 3
-49 9 -18 11 -18 24 8 12 23 12 30 1 43 -11 14 -10 15 9 9 16 -5 25 -2 32 13
12 21 5 54 -9 46 -13 -8 -37 5 -37 20 0 9 7 14 16 13 9 -2 16 3 17 10 3 23 6
27 11 14 2 -6 10 -10 16 -6z m-23 -97 c0 -4 -11 -6 -24 -5 -13 0 -22 4 -20 8
6 9 44 6 44 -3z m-37 -49 c-3 -11 -9 -18 -13 -15 -7 4 -7 18 -1 43 1 2 5 1 10
-2 5 -3 7 -15 4 -26z m29 -125 c7 -9 18 -21 24 -28 14 -14 -14 -67 -36 -67
-13 1 -12 3 2 13 14 11 13 15 -15 31 -18 10 -29 15 -25 11 4 -4 1 -19 -6 -34
-7 -14 -12 -34 -11 -43 2 -10 -1 -20 -6 -24 -5 -3 -5 -12 1 -23 5 -10 6 -21 3
-25 -3 -3 -2 -6 3 -6 5 0 10 -9 11 -20 1 -11 -2 -18 -6 -16 -11 7 -36 -12 -28
-21 5 -4 12 -1 16 6 6 9 11 10 15 2 4 -6 2 -11 -4 -11 -6 0 -8 -4 -5 -10 3 -5
0 -8 -7 -7 -7 2 -9 2 -5 -1 4 -2 3 -10 -4 -18 -9 -11 -8 -14 2 -14 11 0 11 -2
-1 -10 -13 -9 -13 -10 0 -10 13 0 13 -1 0 -10 -13 -9 -13 -10 0 -11 8 -1 18
-1 23 0 9 1 9 -13 0 -22 -3 -4 -13 -1 -22 5 -13 10 -14 10 -3 -2 16 -19 15
-30 -3 -30 -8 0 -15 -5 -15 -10 0 -7 7 -7 23 0 20 10 20 10 -3 -10 -22 -19
-22 -20 -3 -11 29 14 28 14 30 -10 2 -16 -1 -18 -11 -10 -8 6 -20 9 -28 6 -12
-5 -15 3 -14 39 0 25 3 46 6 46 3 0 5 38 5 84 0 47 3 82 7 80 3 -2 9 0 13 6 3
5 2 10 -3 10 -5 0 -9 32 -8 70 0 39 4 70 9 70 4 0 5 -14 2 -32 -7 -35 3 -34
10 1 3 11 7 31 10 43 8 36 36 48 57 23z m-19 -77 c-14 -24 -11 -37 7 -35 21 2
28 -15 9 -22 -7 -2 -9 1 -4 9 6 9 3 9 -14 1 -15 -8 -21 -9 -21 -1 0 6 -4 9 -8
6 -5 -3 -9 2 -9 10 0 9 6 13 15 9 12 -4 12 -3 3 9 -10 11 -8 15 6 19 10 3 19
5 21 6 2 0 0 -5 -5 -11z m-20 -65 c4 -3 2 -12 -4 -20 -9 -9 -8 -13 0 -13 10 0
15 14 12 33 -1 5 4 7 11 5 7 -3 12 -18 12 -34 -1 -16 3 -33 10 -37 7 -5 3 -7
-9 -5 -16 2 -20 -3 -21 -29 0 -18 4 -33 8 -33 5 0 6 -5 3 -10 -5 -8 -11 -8
-20 0 -9 8 -15 8 -20 0 -4 -6 -3 -10 2 -9 22 4 25 -2 7 -16 -19 -15 -19 -15 1
-9 14 4 16 3 7 -3 -9 -7 -6 -12 13 -21 26 -12 25 -38 0 -28 -10 3 -12 -2 -9
-20 5 -29 -11 -33 -19 -4 -4 17 13 44 24 37 2 -1 -2 3 -10 10 -8 7 -17 11 -21
8 -10 -6 -6 48 6 70 14 24 12 73 -4 101 -14 26 2 47 21 27z m29 -178 c0 -5 -5
-11 -10 -13 -5 -1 -9 4 -9 13 0 9 4 14 9 13 5 -2 10 -8 10 -13z m3 -91 c0 -10
-6 -32 -13 -48 -12 -25 -12 -30 8 -51 19 -20 19 -23 5 -29 -23 -8 -25 -8 -21
7 1 6 1 8 -2 4 -5 -10 -32 12 -32 27 0 6 4 4 10 -4 5 -8 13 -11 17 -6 4 5 2
11 -5 13 -10 4 -10 8 0 21 11 13 11 14 -1 8 -9 -6 -12 -5 -9 5 3 8 12 13 19
11 9 -1 7 3 -4 12 -16 12 -16 14 -1 20 10 4 14 12 10 22 -4 10 -1 14 6 12 7
-3 13 -13 13 -24z m-62 -53 c-2 -6 2 -11 8 -11 8 0 7 -5 -1 -15 -11 -13 -9
-20 15 -45 26 -27 27 -50 2 -50 -9 0 -9 2 0 8 8 5 8 12 -3 26 -8 11 -14 15
-14 8 0 -6 -7 -9 -15 -6 -13 5 -13 9 -3 22 11 13 11 14 0 8 -11 -7 -12 -4 -3
12 8 15 8 23 0 28 -8 4 -7 9 2 16 11 8 11 9 -1 5 -10 -2 -15 -16 -14 -38 0
-34 -12 -53 -29 -42 -4 2 -3 11 4 19 6 8 8 14 4 14 -4 0 -2 7 5 15 10 12 10
15 -1 15 -9 1 -7 6 6 15 21 17 42 14 38 -4z m12 -93 c5 4 5 -1 2 -11 -4 -11
-1 -20 8 -24 10 -3 12 -9 6 -17 -5 -6 -7 -28 -6 -49 3 -29 -1 -40 -16 -48 -11
-5 -17 -14 -14 -20 4 -5 1 -9 -4 -9 -10 0 -13 7 -10 26 0 4 -5 10 -11 14 -9 5
-9 9 -1 14 6 4 11 3 11 -3 0 -5 7 -8 15 -7 21 3 28 12 10 14 -8 1 -22 3 -30 4
-9 1 -14 6 -12 12 3 6 10 10 16 9 6 -2 17 -4 24 -5 6 -2 12 4 12 12 0 8 -6 14
-13 12 -8 -1 -12 3 -9 10 2 7 10 12 16 11 6 -2 11 2 11 7 0 9 -14 13 -25 8 -2
-2 -11 6 -20 17 -9 11 -13 14 -9 6 5 -10 3 -12 -7 -7 -8 4 -6 1 4 -7 10 -9 14
-18 8 -21 -5 -3 -12 0 -14 6 -3 7 -4 -2 -2 -19 2 -19 -1 -33 -7 -33 -6 0 -5
-7 3 -17 12 -14 12 -16 0 -8 -10 6 -12 4 -6 -5 5 -7 4 -11 -1 -7 -5 3 -9 -12
-9 -34 0 -24 3 -35 9 -29 13 13 16 40 5 40 -6 0 -7 5 -3 11 4 8 10 5 17 -7 5
-11 17 -25 26 -32 13 -11 13 -13 1 -12 -26 4 -44 0 -37 -7 4 -3 2 -12 -4 -20
-9 -10 -8 -13 0 -13 7 0 10 -4 7 -8 -2 -4 5 -14 17 -21 12 -8 19 -10 15 -6 -4
5 -3 14 3 22 9 10 8 13 -1 13 -8 0 -11 3 -7 6 3 3 15 -1 27 -9 21 -14 21 -16
4 -25 -18 -10 -18 -11 -1 -30 18 -19 18 -20 0 -18 -12 1 -17 -5 -15 -18 2 -11
-1 -15 -7 -11 -6 3 -11 1 -11 -4 0 -6 5 -11 10 -11 7 0 7 -7 2 -17 -5 -10 -7
-30 -6 -46 2 -15 -1 -25 -6 -22 -4 3 -10 0 -12 -7 -3 -7 -7 -5 -11 6 -4 9 -3
15 2 12 12 -8 22 20 15 39 -4 8 -10 12 -15 9 -5 -3 -6 2 -2 11 5 14 8 14 15 3
7 -9 8 -8 4 5 -3 10 -2 27 4 37 7 13 5 23 -8 38 -17 20 -17 20 -47 1 -16 -10
-24 -19 -16 -19 11 0 9 -4 -5 -16 -10 -8 -13 -12 -6 -9 11 6 12 3 3 -13 -6
-10 -9 -29 -6 -41 5 -25 -6 -33 -25 -20 -8 5 -10 9 -4 9 6 0 12 12 12 28 2 28
9 67 13 67 2 0 9 43 11 72 1 12 5 20 9 17 4 -2 7 11 8 29 1 61 2 67 11 67 5 0
7 9 5 20 -2 11 0 20 4 20 4 0 6 16 5 35 -3 39 19 60 47 45 9 -5 20 -6 24 -2z
m-25 -53 c-6 -8 -9 -18 -6 -23 3 -5 -1 -9 -9 -9 -8 0 -11 5 -8 11 10 19 25 36
30 36 3 0 0 -7 -7 -15z m52 -150 c0 -5 -5 -11 -10 -13 -5 -1 -9 4 -9 13 0 9 4
14 9 13 5 -2 10 -8 10 -13z m-79 -102 c-4 -11 -3 -14 6 -9 7 5 1 -15 -14 -43
-24 -48 -25 -53 -10 -81 10 -20 20 -27 31 -23 15 5 14 3 -1 -20 -9 -15 -22
-27 -28 -27 -8 0 -7 4 1 12 8 8 6 18 -8 38 -11 15 -17 29 -15 32 3 3 -2 5 -10
5 -8 0 -15 -4 -15 -9 0 -4 5 -8 11 -8 5 0 7 -5 3 -11 -5 -8 -10 -6 -16 5 -10
18 -2 39 13 31 5 -4 9 -2 9 4 0 5 -3 11 -7 14 -5 2 -2 2 5 0 7 -1 11 1 8 6 -3
5 4 21 16 37 13 15 17 25 11 21 -6 -4 -13 -4 -16 0 -2 5 -2 2 0 -5 1 -8 -2
-10 -9 -6 -7 5 -8 3 -3 -6 5 -9 4 -11 -3 -6 -9 5 -9 13 -2 27 6 10 7 19 3 19
-4 0 2 6 12 14 24 17 37 12 28 -11z m-43 -63 c0 -5 -4 -10 -10 -10 -5 0 -10 5
-10 10 0 6 5 10 10 10 6 0 10 -4 10 -10z m50 -40 c0 -5 -7 -10 -15 -10 -8 0
-15 5 -15 10 0 6 7 10 15 10 8 0 15 -4 15 -10z m-82 -35 c14 -31 15 -38 3 -31
-5 3 -17 -6 -26 -20 -12 -18 -13 -24 -4 -19 8 3 5 -1 -5 -9 -15 -12 -16 -16
-5 -16 10 -1 9 -4 -4 -11 -10 -6 -21 -8 -24 -5 -4 3 -1 6 5 6 6 0 9 9 7 20 -2
11 0 20 5 20 5 0 7 8 4 18 -5 14 -4 15 5 2 9 -13 11 -13 11 3 0 9 -6 17 -12
18 -10 0 -10 2 0 6 6 2 12 13 12 24 0 27 15 24 28 -6z m35 -22 c-4 -10 -2 -14
5 -9 6 3 13 2 17 -3 8 -14 -30 -32 -51 -24 -12 4 -15 3 -10 -6 4 -6 15 -11 24
-10 41 4 48 -1 49 -36 0 -27 -2 -33 -12 -25 -13 10 -25 4 -25 -14 0 -6 5 -4
10 4 5 8 10 10 10 4 0 -6 -6 -17 -14 -23 -11 -9 -15 -8 -20 6 -5 12 1 24 19
39 23 18 24 22 11 34 -12 9 -16 9 -16 1 0 -7 -5 -9 -10 -6 -6 4 -9 1 -8 -6 2
-6 -3 -14 -11 -17 -8 -2 -11 0 -7 6 3 6 2 13 -3 17 -6 3 -8 -4 -6 -15 2 -11 0
-18 -6 -15 -10 7 -12 -5 -11 -43 1 -20 -1 -22 -14 -11 -8 6 -17 9 -21 5 -3 -3
0 -6 8 -6 10 -1 8 -4 -4 -11 -22 -13 -32 -6 -21 13 8 12 10 17 13 36 0 5 12
14 26 20 14 6 25 15 24 19 -1 5 0 11 1 16 4 12 7 26 9 38 0 5 5 8 10 4 6 -3
15 4 21 15 13 24 22 27 13 3z m-10 -96 l-31 -23 19 -24 c20 -27 25 -45 9 -35
-5 3 -10 2 -10 -4 0 -5 6 -12 13 -15 6 -3 3 -4 -9 -1 -12 3 -26 -1 -34 -9 -10
-13 -8 -20 8 -40 11 -14 22 -23 26 -21 3 3 4 2 1 -2 -3 -3 2 -16 10 -29 13
-20 12 -23 -1 -28 -9 -3 -14 -1 -13 7 1 6 -1 20 -5 29 -7 14 -12 16 -28 7 -16
-9 -19 -8 -15 3 2 7 10 12 16 11 16 -4 14 14 -3 20 -7 3 -19 0 -26 -6 -10 -10
-10 -8 -2 9 6 12 8 24 5 28 -3 3 0 6 7 6 7 0 11 3 8 6 -4 3 -16 0 -28 -6 -15
-8 -20 -8 -16 -1 4 6 5 11 2 11 -3 0 -10 -9 -16 -21 -10 -19 -10 -20 9 -10 32
18 33 13 0 -18 -19 -18 -28 -35 -23 -42 5 -8 3 -9 -6 -4 -9 5 -11 4 -6 -3 11
-19 29 -14 21 6 -5 13 -3 14 6 5 14 -14 2 -36 -18 -29 -9 4 -11 2 -7 -6 5 -7
3 -8 -6 -3 -9 6 -11 4 -5 -5 5 -8 1 -18 -10 -27 -11 -7 -14 -13 -9 -13 6 0 11
-6 11 -14 0 -8 -5 -14 -11 -13 -6 1 -10 -8 -10 -20 1 -13 -3 -20 -9 -16 -6 3
-7 1 -3 -5 5 -8 1 -10 -10 -5 -11 4 -13 8 -6 11 7 2 12 12 12 23 0 10 5 19 11
19 6 0 9 6 6 14 -3 7 1 25 8 40 8 14 12 26 10 26 -2 0 4 20 15 44 10 24 16 47
13 50 -4 3 -1 6 5 6 7 0 11 6 10 13 -2 7 5 11 16 9 11 -2 15 1 11 7 -3 6 -1
12 4 12 35 4 46 2 43 -10 -1 -7 2 -10 7 -6 6 3 7 13 4 22 -4 11 -3 14 5 9 8
-5 10 -2 5 9 -4 12 -8 13 -13 5 -5 -9 -9 -9 -14 -1 -4 6 -1 11 6 12 10 0 10 2
0 6 -12 5 42 50 62 52 6 1 -4 -9 -21 -22z m-89 -162 c-7 -18 7 -20 26 -2 12
10 12 9 1 -5 -14 -18 -6 -42 10 -32 6 3 16 3 24 0 20 -7 -4 -68 -25 -61 -8 2
-22 0 -30 -5 -13 -9 -13 -10 0 -10 13 0 13 -1 0 -10 -18 -11 -19 -37 -3 -72
16 -33 16 -38 2 -38 -5 0 -8 4 -5 8 6 10 -10 37 -24 38 -23 3 -24 5 -11 13 9
6 10 11 2 15 -6 4 -11 1 -11 -6 0 -9 -3 -9 -10 2 -6 10 -10 11 -10 3 0 -7 -4
-13 -8 -13 -5 0 -9 7 -9 14 0 8 5 14 11 13 5 -1 10 9 11 21 0 13 13 37 29 53
22 22 27 32 18 41 -7 7 -8 17 -1 30 12 22 21 24 13 3z m16 -165 c0 -5 -5 -10
-11 -10 -5 0 -7 5 -4 10 3 6 8 10 11 10 2 0 4 -4 4 -10z m-35 -33 c4 5 5 2 1
-5 -6 -10 -11 -10 -22 -1 -11 9 -14 9 -14 -1 0 -10 -3 -10 -16 0 -8 8 -14 9
-13 4 4 -21 -2 -26 -16 -14 -13 11 -14 10 -8 -5 5 -14 3 -17 -10 -12 -12 4
-15 1 -12 -14 3 -12 0 -17 -7 -13 -6 4 -8 3 -4 -4 3 -6 -2 -18 -11 -28 -16
-16 -16 -17 -1 -12 13 5 16 2 13 -12 -2 -11 -1 -19 3 -19 20 3 28 -3 29 -23 2
-23 2 -23 -11 1 -8 14 -16 19 -20 13 -3 -6 0 -12 6 -15 7 -2 9 -8 5 -13 -4 -5
-12 -2 -18 6 -8 13 -10 13 -19 0 -9 -13 -10 -13 -10 0 0 13 -1 13 -10 0 -12
-19 -13 -8 -1 22 5 13 8 26 7 29 0 3 6 14 14 23 8 10 15 25 16 34 5 28 27 63
39 58 6 -2 19 2 30 10 16 12 21 12 35 -1 9 -8 20 -12 25 -8z m11 -42 c-2 -12
-7 -28 -12 -36 -4 -8 -9 -30 -10 -49 -1 -19 -3 -38 -3 -41 -1 -4 -14 -6 -31
-5 -27 1 -34 7 -31 28 0 4 -8 12 -18 17 -22 12 -23 52 -1 59 13 5 13 3 0 -14
-14 -18 -14 -18 3 -5 10 8 17 9 17 3 0 -6 -8 -16 -17 -22 -15 -8 -14 -9 8 -6
17 3 26 -1 26 -10 0 -7 -3 -11 -7 -9 -4 2 -7 -2 -7 -10 0 -12 3 -12 16 -2 12
10 14 9 9 -4 -4 -9 -1 -16 8 -16 7 0 11 4 8 9 -3 5 0 16 7 24 10 12 10 15 -1
12 -7 -2 -15 3 -18 11 -3 8 0 11 6 7 6 -4 16 3 22 15 8 15 9 19 1 15 -6 -4
-11 -5 -11 -2 0 2 -3 12 -7 21 -5 15 -3 16 18 5 16 -8 20 -9 13 -1 -16 17 -54
22 -48 6 3 -7 0 -16 -7 -21 -8 -5 -10 -3 -4 7 7 11 6 12 -6 2 -9 -8 -20 -9
-29 -3 -10 7 -11 10 -2 10 6 0 15 -1 18 -2 3 -2 9 4 14 12 5 9 23 16 43 17 30
0 35 -2 33 -22z m-51 -25 c-3 -5 -1 -10 4 -10 6 0 11 -5 11 -12 0 -6 -3 -8 -6
-5 -4 3 -14 2 -23 -3 -13 -6 -17 -4 -17 10 0 10 4 17 7 14 4 -2 10 0 14 6 3 5
8 10 11 10 3 0 2 -4 -1 -10z m788 -613 c4 3 7 1 7 -5 0 -18 -27 -14 -34 4 -5
13 -4 14 7 6 8 -7 17 -9 20 -5z m52 -127 c3 -5 1 -10 -4 -10 -6 0 -11 5 -11
10 0 6 2 10 4 10 3 0 8 -4 11 -10z m35 -220 c0 -5 -2 -10 -4 -10 -3 0 -8 5
-11 10 -3 6 -1 10 4 10 6 0 11 -4 11 -10z m-4400 -102 c0 -4 5 -8 11 -8 5 0 8
4 5 8 -3 5 1 9 9 9 8 0 15 -4 15 -8 0 -11 -31 -20 -43 -12 -6 4 -26 8 -43 8
-26 2 -31 -1 -27 -14 4 -11 0 -9 -10 4 -9 11 -17 17 -17 13 0 -17 -2 -24 -11
-40 -5 -10 -6 -18 -1 -18 5 0 9 -7 9 -15 0 -9 -4 -14 -9 -13 -5 2 -9 7 -8 12
1 5 -4 13 -12 17 -11 7 -11 9 1 9 11 0 11 3 1 15 -10 12 -9 16 4 21 9 3 14 9
11 13 -2 4 23 7 56 7 32 0 59 -4 59 -8z m73 -1 c20 12 47 14 47 2 0 -5 -4 -7
-10 -4 -14 9 -12 -8 3 -24 10 -11 10 -13 0 -7 -7 4 -13 2 -13 -4 0 -7 6 -10
13 -7 6 2 11 12 9 21 -3 15 0 15 17 4 20 -12 29 -29 14 -27 -5 1 -15 1 -23 0
-12 -1 -11 -4 4 -12 14 -9 20 -8 27 2 7 12 9 11 9 -1 0 -13 1 -13 10 0 9 13
11 13 20 0 5 -8 10 -10 10 -4 0 7 8 11 18 10 9 0 16 5 14 12 -1 8 3 12 10 9 7
-2 12 -10 10 -16 -1 -7 2 -10 8 -6 8 5 8 11 0 20 -9 11 -7 14 9 12 13 -1 20
-6 17 -14 -3 -7 -1 -15 5 -18 5 -4 9 -3 8 2 -4 20 2 27 12 13 9 -13 10 -12 5
3 -4 12 -2 16 6 11 6 -4 8 -3 5 3 -4 6 -18 9 -31 8 -19 -2 -23 1 -18 13 4 10
7 12 10 4 2 -7 9 -9 15 -5 17 10 77 11 71 1 -3 -4 0 -8 5 -8 6 0 11 6 12 13 0
8 2 8 6 -2 5 -11 7 -11 14 0 5 9 7 2 4 -18 -2 -19 1 -33 7 -33 6 0 7 8 3 18
-5 13 -3 14 5 6 9 -9 8 -18 -2 -38 l-13 -26 -30 28 c-31 29 -46 34 -57 18 -8
-12 2 -37 13 -30 5 3 9 0 9 -5 0 -15 -15 -14 -28 2 -14 16 -98 15 -94 -1 1 -7
-2 -12 -8 -12 -5 0 -10 4 -10 8 0 8 -34 8 -82 0 -9 -2 -18 1 -20 7 -2 5 -13
20 -25 33 -17 18 -26 21 -40 14 -10 -6 -22 -12 -28 -14 -5 -1 -9 -5 -8 -8 1
-4 -20 -6 -47 -6 -46 0 -47 1 -38 22 10 22 32 25 70 9 10 -4 23 0 35 12 10 10
20 15 21 11 2 -5 9 -5 15 -1z m72 3 c-3 -5 -1 -10 4 -10 6 0 11 6 12 13 0 10
2 10 6 0 2 -7 9 -13 14 -13 6 0 7 5 4 10 -3 6 -1 10 4 10 12 0 10 -27 -2 -47
-5 -8 -15 -5 -32 11 -27 25 -31 36 -14 36 5 0 7 -4 4 -10z m135 -2 c0 -8 -16
-12 -32 -9 -8 1 -12 -15 -9 -31 0 -5 -3 -8 -9 -8 -5 0 -10 6 -10 13 0 8 -3 7
-10 -3 -7 -12 -9 -10 -7 8 1 13 6 21 14 18 7 -3 15 0 19 6 4 6 3 8 -4 4 -6 -3
-13 -3 -16 2 -2 4 11 8 30 8 19 0 34 -4 34 -8z m174 0 c-5 -7 -3 -8 7 -2 19
12 59 13 59 1 0 -5 -7 -6 -16 -3 -10 4 -13 2 -8 -6 4 -6 3 -8 -2 -5 -6 3 -16
2 -22 -2 -10 -6 -9 -11 3 -21 13 -11 15 -10 9 6 -5 18 -5 18 9 2 8 -10 18 -18
22 -18 4 0 2 6 -5 14 -9 12 -8 15 9 13 12 -1 19 -7 17 -13 -2 -6 0 -16 6 -22
10 -10 -6 -11 -54 -3 -4 0 -16 11 -28 23 -22 23 -27 48 -9 48 5 0 7 -5 3 -12z
m99 -1 c20 12 47 14 47 2 0 -5 -4 -7 -10 -4 -5 3 -10 2 -10 -3 0 -4 -13 -8
-29 -8 -22 0 -28 3 -23 15 4 10 7 11 10 3 2 -7 9 -9 15 -5z m124 -9 c-1 -10
-5 -18 -10 -18 -5 0 -7 6 -4 13 3 8 -1 14 -9 14 -8 0 -14 -4 -14 -9 0 -4 -5
-8 -11 -8 -5 0 -7 6 -3 13 4 6 4 9 0 5 -4 -3 -7 -8 -5 -10 1 -1 -3 -13 -10
-25 -11 -23 -6 -29 22 -24 4 0 7 -4 7 -10 0 -5 5 -7 12 -3 7 4 8 3 4 -4 -5 -8
-13 -9 -24 -3 -9 4 -23 6 -31 3 -8 -3 -11 0 -7 7 4 6 1 11 -6 11 -10 0 -10 2
1 9 9 6 10 11 2 15 -6 4 -11 1 -11 -6 0 -9 -3 -9 -10 2 -6 9 -10 10 -10 3 0
-6 5 -15 10 -18 6 -3 10 -11 10 -16 0 -6 -4 -7 -10 -4 -5 3 -10 1 -10 -4 0 -6
-5 -11 -11 -11 -8 0 -8 4 0 14 9 10 9 16 1 21 -17 10 7 34 30 30 12 -2 21 3
25 14 8 26 74 25 72 -1z m43 10 c0 -4 -4 -8 -9 -8 -6 0 -12 4 -15 8 -3 5 1 9
9 9 8 0 15 -4 15 -9z m31 -8 c6 0 8 4 5 8 -2 4 6 8 20 8 13 0 24 -4 24 -9 0
-5 -8 -6 -17 -3 -11 4 -9 -1 7 -15 22 -18 22 -19 3 -10 -24 12 -40 0 -27 -21
5 -7 3 -8 -5 -3 -8 4 -18 -1 -27 -14 -18 -26 -33 -27 -29 -3 2 9 4 19 4 22 1
3 6 -2 11 -10 6 -9 10 -10 10 -3 0 6 7 18 15 27 14 13 13 15 -4 13 -13 -1 -17
-6 -13 -17 5 -13 4 -13 -13 0 -11 9 -16 10 -11 3 4 -7 4 -13 -1 -14 -4 0 -20
-2 -35 -4 -21 -3 -26 0 -21 13 4 13 2 12 -10 -3 -14 -17 -16 -17 -17 -4 0 21
24 31 38 17 13 -13 35 -1 26 14 -4 6 1 8 15 3 15 -4 23 -1 28 11 4 11 8 13 11
6 2 -7 8 -12 13 -12z m2004 10 c3 -5 1 -10 -4 -10 -6 0 -11 5 -11 10 0 6 2 10
4 10 3 0 8 -4 11 -10z m165 3 c0 -1 -8 -7 -18 -12 -13 -7 -19 -6 -19 2 0 7 9
13 19 13 10 0 18 -1 18 -3z m60 2 c0 -2 -9 -9 -20 -15 -12 -6 -20 -7 -20 -1 0
5 8 12 18 14 9 3 18 5 20 6 1 0 2 -1 2 -4z m18 -15 c-7 -10 -14 -17 -17 -15
-4 4 18 35 25 35 2 0 -1 -9 -8 -20z m86 8 c-7 -12 10 -10 22 2 7 7 11 7 11 -3
0 -8 -14 -13 -41 -13 -23 0 -35 1 -28 4 6 2 10 7 8 11 -3 4 4 7 14 7 10 0 16
-4 14 -8z m408 -3 c14 -19 8 -25 -12 -13 -11 7 -20 16 -20 20 0 11 23 5 32 -7z
m29 6 c7 12 9 11 9 -1 0 -13 1 -13 10 0 9 13 10 13 10 0 0 -13 1 -13 10 0 6
10 10 11 10 3 0 -7 7 -13 15 -13 20 0 19 -14 -2 -31 -15 -12 -16 -12 -11 3 7
18 0 30 -13 22 -5 -3 -5 -14 1 -24 11 -20 47 -20 42 0 -1 6 3 10 10 7 7 -2 12
-10 10 -16 -1 -7 2 -10 8 -6 8 5 8 11 0 20 -9 11 -7 14 9 12 12 -1 19 -7 17
-13 -3 -7 5 -20 17 -31 22 -18 22 -18 4 3 -9 11 -14 24 -11 27 4 4 13 -1 21
-11 11 -15 12 -15 7 -1 -3 10 -1 20 5 24 7 4 8 0 4 -11 -5 -14 -3 -16 11 -11
9 4 15 3 12 -2 -6 -10 24 -25 32 -17 2 3 6 16 7 29 2 17 -2 23 -17 23 -18 0
-18 -1 -3 -12 10 -7 14 -18 10 -25 -6 -8 -10 -7 -17 5 -5 9 -13 14 -19 11 -5
-3 -6 0 -3 8 3 8 1 18 -5 22 -6 3 -11 2 -11 -3 0 -4 -13 -8 -29 -8 -22 0 -28
3 -23 15 4 10 7 11 10 3 2 -7 9 -9 15 -5 17 10 77 11 71 1 -3 -4 0 -8 5 -8 6
0 11 6 11 13 1 6 7 1 14 -12 13 -23 8 -42 -22 -90 -1 -3 -9 5 -18 17 -18 25
-34 29 -34 7 0 -18 -12 -19 -29 -2 -10 10 -15 9 -25 -5 -7 -10 -16 -15 -19
-11 -4 3 1 11 9 18 14 10 9 11 -27 10 -48 -2 -71 3 -64 15 2 4 -2 16 -10 26
-14 18 -15 16 -10 -16 5 -33 4 -34 -10 -16 -8 11 -15 14 -15 8 0 -7 0 -15 0
-19 0 -5 4 -8 9 -8 5 0 13 -3 17 -7 4 -5 -2 -8 -12 -8 -11 0 -25 5 -31 11 -8
8 -17 7 -34 -2 -14 -7 -24 -8 -26 -2 -2 6 -11 19 -19 29 -9 10 -13 14 -10 7 4
-6 0 -14 -6 -16 -8 -3 -6 -6 5 -6 11 -1 15 -6 11 -12 -10 -16 -36 14 -29 33 4
10 17 15 36 14 31 -1 35 -6 18 -23 -8 -8 -8 -13 0 -18 6 -3 10 -1 9 6 -2 6 3
14 11 17 9 3 11 0 6 -8 -6 -9 -3 -9 14 -1 24 13 29 23 7 15 -17 -7 -31 12 -16
21 6 4 17 2 25 -5 15 -12 27 0 22 22 -2 7 -2 9 1 4 2 -4 8 -2 13 5z m119 -2
c0 -14 -27 -16 -43 -4 -16 11 -14 13 13 11 16 0 30 -4 30 -7z m240 -1 c0 -8
-16 -12 -32 -9 -8 1 -12 -15 -9 -31 2 -14 -11 -9 -26 10 -13 15 -13 15 -3 -6
11 -23 37 -25 32 -2 -1 6 3 10 10 7 7 -2 12 -9 11 -15 -1 -5 5 -9 15 -7 9 1
26 -5 37 -14 20 -16 20 -16 1 7 -11 12 -16 25 -13 29 4 4 14 -2 22 -13 11 -14
14 -15 9 -3 -3 10 -1 20 5 24 7 4 8 0 4 -11 -5 -14 -3 -16 11 -11 9 4 15 3 12
-2 -8 -13 23 -22 41 -13 13 8 13 10 -1 15 -10 4 -15 3 -11 -3 3 -6 2 -10 -3
-10 -6 0 -13 7 -16 16 -3 8 -10 12 -16 9 -6 -3 -7 1 -4 10 5 12 9 13 21 4 10
-9 17 -9 24 -2 8 8 6 11 -6 10 -10 -1 -20 4 -22 11 -3 6 0 12 7 12 6 0 8 -4 5
-10 -3 -5 -1 -10 4 -10 6 0 11 5 11 12 0 20 13 -1 15 -24 2 -22 25 -39 25 -18
0 6 -3 9 -7 7 -5 -3 -9 5 -9 17 -2 21 3 22 47 22 27 -1 49 -4 49 -8 0 -5 5 -8
11 -8 5 0 8 3 6 8 -3 4 8 8 24 9 32 2 41 -11 9 -15 -41 -4 -56 -4 -79 2 -13 3
-20 2 -17 -2 7 -7 11 -8 37 -11 5 0 7 -6 4 -11 -4 -7 -13 -7 -26 0 -16 9 -26
4 -61 -29 -40 -39 -42 -40 -55 -21 -17 24 -33 26 -33 5 0 -17 -16 -20 -25 -4
-4 5 -12 8 -18 6 -7 -2 -20 0 -30 5 -13 7 -24 5 -36 -6 -24 -21 -29 -20 -28 7
0 12 -2 29 -4 37 -2 9 3 15 13 15 9 0 20 3 23 7 4 4 -7 5 -24 3 -17 -2 -31 -1
-31 4 0 4 23 7 50 7 28 0 50 -4 50 -8z m33 -1 c20 12 47 14 47 2 0 -5 -4 -8
-9 -5 -5 3 -11 -1 -15 -9 -3 -8 -12 -12 -21 -9 -9 4 -17 -1 -21 -10 -5 -12
-10 -14 -19 -6 -11 9 -11 14 3 29 9 9 19 13 20 9 2 -5 9 -5 15 -1z m307 1 c0
6 7 12 16 12 9 0 14 -6 11 -12 -2 -7 -10 -12 -16 -10 -6 1 -11 -4 -11 -10 0
-10 -2 -10 -8 -2 -5 8 -11 7 -22 -4 -13 -14 -12 -15 3 -9 10 4 17 2 18 -6 0
-9 2 -9 6 1 7 17 23 15 23 -2 0 -10 -7 -13 -21 -11 -15 3 -19 0 -15 -10 3 -8
-2 -13 -12 -13 -9 0 -25 -3 -35 -7 -12 -5 -17 -3 -15 5 4 18 -18 23 -34 7 -11
-11 -16 -12 -25 -1 -9 9 -9 15 4 26 9 7 18 12 20 10 2 -1 17 5 33 13 17 9 35
13 40 10 6 -4 13 1 16 10 6 13 8 14 15 3 7 -10 9 -10 9 0z m212 -6 c-10 -3
-10 -7 -1 -18 7 -8 8 -18 4 -22 -4 -4 -10 -1 -12 6 -4 9 -8 10 -18 2 -9 -8
-15 -8 -20 0 -3 5 1 10 9 10 8 0 18 9 21 20 4 12 11 17 18 13 8 -5 8 -8 -1
-11z m-4623 -24 c7 -11 7 -18 1 -18 -5 0 -10 5 -10 10 0 6 -5 9 -11 8 -6 -2
-13 2 -16 8 -6 18 24 12 36 -8z m4508 5 c0 -6 -4 -10 -8 -8 -11 7 -32 -23 -24
-35 3 -6 12 -7 18 -4 8 5 8 3 0 -6 -11 -12 -15 -11 -27 5 -9 12 -10 22 -5 26
6 3 9 10 8 15 -3 18 1 23 19 21 10 0 19 -7 19 -14z m-1579 -18 c-3 -3 -9 2
-12 12 -6 14 -5 15 5 6 7 -7 10 -15 7 -18z m126 9 c3 -8 2 -12 -4 -9 -6 3 -10
10 -10 16 0 14 7 11 14 -7z m456 -50 c-44 -40 -46 -40 -60 -13 -9 16 -8 25 6
40 9 10 20 16 24 14 4 -3 13 2 20 10 11 14 15 14 31 -1 16 -15 15 -17 -21 -50z
m-3402 25 c1 -35 -10 -31 -15 6 -2 14 0 25 5 25 5 0 9 -14 10 -31z m983 10
c-2 -8 -4 -20 -4 -26 0 -7 -5 -13 -10 -13 -5 0 -6 7 -3 16 4 10 2 13 -7 7 -21
-13 -40 -12 -61 4 -13 10 -15 13 -5 10 9 -3 22 0 28 6 9 9 11 7 6 -8 -6 -19
-5 -18 10 2 17 23 52 24 46 2z m1799 11 c0 -5 -5 -10 -11 -10 -5 0 -7 5 -4 10
3 6 8 10 11 10 2 0 4 -4 4 -10z m120 -2 c0 -4 -4 -8 -9 -8 -6 0 -12 4 -15 8
-3 5 1 9 9 9 8 0 15 -4 15 -9z m139 2 c-6 -5 -18 -6 -26 -3 -19 8 -16 11 13
11 17 0 22 -3 13 -8z m121 6 c0 -3 -4 -8 -10 -11 -5 -3 -10 -1 -10 4 0 6 5 11
10 11 6 0 10 -2 10 -4z m-3023 -23 c2 -6 -2 -15 -9 -19 -21 -13 -48 -15 -48
-3 0 5 5 7 10 4 9 -5 14 7 11 27 -1 10 33 2 36 -9z m2877 -2 c3 -5 -2 -15 -12
-22 -16 -13 -16 -13 -2 5 14 18 13 19 -2 13 -10 -3 -18 -2 -18 3 0 12 27 13
34 1z m232 -4 c4 -4 14 -7 23 -7 14 0 14 2 1 11 -10 7 -11 9 -2 7 8 -2 12 -6
10 -10 -2 -3 8 -18 21 -32 l24 -25 -28 2 c-16 1 -31 9 -33 17 -5 13 -3 13 11
1 11 -9 17 -10 17 -2 0 10 -7 13 -26 10 -4 0 -11 5 -16 13 -6 9 -7 6 -3 -9 9
-31 -10 -37 -25 -7 -10 17 -16 21 -21 12 -4 -7 -11 -9 -15 -5 -4 4 1 13 11 21
20 14 39 15 51 3z m-422 -13 c3 -8 2 -12 -4 -9 -6 3 -10 10 -10 16 0 14 7 11
14 -7z m156 -16 c0 -19 -16 -5 -17 14 -2 18 0 20 7 8 5 -8 10 -18 10 -22z
m-241 -1 c0 -9 -2 -8 -6 1 -2 6 -10 9 -15 6 -7 -4 -8 -2 -4 5 9 13 26 5 25
-12z m136 13 c3 -5 1 -10 -4 -10 -6 0 -11 5 -11 10 0 6 2 10 4 10 3 0 8 -4 11
-10z m765 1 c0 -5 -6 -14 -14 -21 -12 -9 -15 -8 -13 9 1 20 27 31 27 12z m320
-11 c0 -5 -4 -10 -10 -10 -5 0 -10 5 -10 10 0 6 5 10 10 10 6 0 10 -4 10 -10z
m-1100 -40 c0 -6 -5 -10 -11 -10 -5 0 -7 5 -3 12 5 8 2 9 -12 4 -10 -4 -15 -4
-11 0 4 4 -1 13 -11 21 -12 10 -8 9 16 -2 17 -8 32 -20 32 -25z m-1726 15 c-5
-12 -34 -17 -34 -5 0 11 9 17 24 17 8 0 12 -6 10 -12z m1579 0 c-3 -9 -8 -14
-10 -11 -3 3 -2 9 2 15 9 16 15 13 8 -4z m47 -10 c0 -8 -2 -15 -4 -15 -2 0 -6
7 -10 15 -3 8 -1 15 4 15 6 0 10 -7 10 -15z m415 -3 c-3 -3 -11 0 -18 7 -9 10
-8 11 6 5 10 -3 15 -9 12 -12z m-440 -13 c-4 -5 -12 -9 -18 -8 -9 0 -8 2 1 6
6 2 9 10 6 15 -4 7 -2 8 5 4 6 -4 9 -12 6 -17z m79 2 c3 -5 -6 -8 -20 -8 -19
0 -22 2 -13 8 18 11 26 11 33 0z m-1630 -15 c-6 -17 -34 -30 -34 -16 0 5 8 14
18 19 22 13 22 13 16 -3z m1906 -16 c0 -15 -5 -12 -26 11 -19 22 -19 22 4 10
12 -6 22 -16 22 -21z m-430 10 c-8 -5 -19 -10 -25 -10 -5 0 -3 5 5 10 8 5 20
10 25 10 6 0 3 -5 -5 -10z m45 0 c3 -5 2 -10 -4 -10 -5 0 -13 5 -16 10 -3 6
-2 10 4 10 5 0 13 -4 16 -10z m-21 -27 c9 -22 -10 -41 -25 -26 -13 13 -5 43
10 43 5 0 12 -8 15 -17z m264 -7 c-7 -8 -15 -12 -17 -11 -5 6 10 25 20 25 5 0
4 -6 -3 -14z m-178 -86 c-7 -14 -6 -20 7 -24 9 -4 13 -9 10 -13 -4 -3 -13 -1
-20 6 -15 12 -47 5 -47 -11 0 -5 -5 -6 -11 -3 -6 5 -4 11 7 19 15 11 15 13 0
13 -9 0 -17 -4 -17 -9 -1 -4 -2 -11 -3 -15 -2 -12 -36 -59 -36 -50 0 4 6 16
13 27 10 17 9 22 -3 30 -8 5 -12 10 -7 10 17 0 23 2 35 12 6 6 12 7 12 2 0 -5
5 -1 11 9 6 9 14 15 19 12 5 -3 11 -1 15 5 11 18 26 0 15 -20z m-127 -40 c8
-9 8 -11 0 -6 -6 3 -15 2 -18 -4 -5 -8 -11 -8 -19 -1 -7 6 -16 8 -19 4 -4 -3
-7 -1 -7 5 0 22 42 24 63 2z m-73 -40 c0 -5 -9 -14 -20 -20 -11 -6 -19 -14
-18 -18 1 -4 -1 -17 -6 -29 -8 -24 -21 -30 -31 -13 -9 15 -27 1 -21 -16 3 -7
1 -16 -5 -20 -6 -4 -4 -13 7 -25 17 -19 12 -24 -22 -20 -7 1 -23 -12 -37 -29
-28 -32 -43 -39 -34 -15 12 31 -17 26 -49 -9 -35 -39 -51 -45 -51 -21 0 8 5
14 11 13 6 -2 13 2 14 7 11 29 24 44 36 39 8 -3 20 4 28 15 8 12 18 18 21 14
4 -3 2 -12 -4 -19 -13 -16 2 -26 21 -13 9 5 10 9 3 9 -14 0 -10 33 5 38 7 2 9
-5 7 -19 -2 -12 -1 -18 3 -15 4 4 8 12 8 17 1 5 2 12 3 16 0 4 8 -2 17 -13 15
-18 15 -18 5 2 -6 12 -7 24 -4 28 3 3 1 6 -7 6 -10 0 -10 3 0 15 7 9 10 18 6
22 -3 3 -6 1 -6 -7 0 -10 -4 -10 -17 1 -16 13 -17 12 -4 -3 8 -11 9 -18 3 -18
-6 0 -15 6 -19 14 -7 12 -10 11 -23 -2 -13 -14 -12 -15 3 -9 12 5 16 3 11 -5
-4 -7 -3 -8 4 -4 8 5 10 1 5 -10 -4 -11 -8 -13 -11 -6 -2 7 -8 12 -13 12 -6 0
-8 -4 -4 -9 3 -5 0 -13 -6 -17 -7 -4 -9 -3 -6 3 4 7 -8 10 -33 8 -22 -2 -40 0
-40 4 0 4 6 8 13 9 44 4 70 19 63 38 -3 8 0 11 8 8 8 -3 17 0 21 6 5 8 10 8
20 0 8 -7 19 -9 26 -5 8 6 8 10 -2 16 -7 4 -10 11 -6 16 9 9 28 -17 21 -29 -3
-4 -1 -8 4 -8 11 0 25 30 17 38 -3 3 -5 -1 -5 -9 0 -12 -2 -11 -10 1 -6 10 -3
21 12 37 11 12 24 20 29 18 4 -3 10 -1 14 5 7 12 45 -5 45 -20z m58 -11 c11
-15 10 -17 -11 -15 -20 1 -22 4 -13 18 5 9 11 16 11 15 0 -1 6 -9 13 -18z
m-188 -109 c0 -5 -2 -10 -4 -10 -3 0 -8 5 -11 10 -3 6 -1 10 4 10 6 0 11 -4
11 -10z m-76 -27 c8 -21 -14 -26 -29 -7 -13 18 -13 18 -12 -1 1 -12 -3 -19
-11 -17 -8 1 -11 -6 -8 -23 3 -14 1 -23 -5 -20 -5 3 -17 1 -26 -4 -10 -6 -13
-11 -7 -11 13 0 14 -60 1 -60 -5 0 -6 7 -3 16 3 8 2 12 -3 9 -6 -3 -8 7 -6 22
2 16 4 32 4 36 1 5 6 5 11 2 6 -3 10 -3 11 2 3 31 10 49 24 60 21 15 53 13 59
-4z m-128 -2 c-3 -5 1 -14 8 -20 11 -10 17 -8 25 6 11 17 11 17 9 -2 -2 -11
-11 -26 -21 -33 -11 -8 -16 -21 -12 -31 3 -10 -1 -24 -10 -31 -18 -15 -20 0
-2 20 10 12 9 12 -5 1 -13 -10 -18 -9 -26 5 -7 13 -13 14 -30 5 -11 -6 -28 -8
-38 -4 -14 5 -16 3 -11 -10 14 -35 17 -51 6 -29 -7 13 -18 21 -26 18 -9 -4
-11 -1 -7 6 4 7 3 8 -5 4 -6 -4 -9 -16 -6 -26 6 -20 -10 -36 -20 -20 -3 5 0
10 7 10 8 0 9 3 3 8 -5 4 -11 14 -13 24 -2 12 4 16 23 13 17 -1 32 5 44 21 16
20 20 21 33 8 13 -13 17 -12 40 5 14 11 28 17 32 14 3 -3 6 -1 6 5 0 6 -5 14
-10 17 -10 6 -5 25 6 25 3 0 3 -4 0 -9z m2 -123 c14 3 14 2 2 -13 -13 -16 -15
-16 -27 1 -7 10 -13 13 -13 7 0 -13 -56 -37 -85 -37 -11 0 -20 5 -19 12 1 7 2
19 3 28 0 8 6 12 11 9 7 -5 8 -11 1 -18 -7 -9 -1 -12 19 -12 27 -1 28 0 15 26
-13 25 -13 26 10 23 14 -1 25 3 25 9 1 7 10 1 22 -13 11 -14 28 -23 36 -22z
m132 22 c0 -5 -2 -10 -4 -10 -3 0 -8 5 -11 10 -3 6 -1 10 4 10 6 0 11 -4 11
-10z"/>
<path d="M4653 3899 c-2 -23 3 -25 10 -4 4 8 3 16 -1 19 -4 3 -9 -4 -9 -15z"/>
<path d="M4684 3807 c-9 -10 -5 -17 17 -30 17 -9 31 -12 35 -6 3 5 2 9 -3 8
-20 -3 -27 2 -13 11 13 8 12 10 -3 10 -10 0 -15 5 -12 10 9 14 -8 12 -21 -3z"/>
<path d="M4636 3603 c-6 -14 -5 -15 5 -6 7 7 10 15 7 18 -3 3 -9 -2 -12 -12z"/>
<path d="M4683 3615 c0 -8 4 -12 9 -9 5 3 6 10 3 15 -9 13 -12 11 -12 -6z"/>
<path d="M4627 3249 c7 -7 15 -10 18 -7 3 3 -2 9 -12 12 -14 6 -15 5 -6 -5z"/>
<path d="M4575 3037 c-13 -10 -15 -16 -6 -21 9 -6 8 -11 -5 -20 -10 -8 -13
-15 -7 -19 6 -4 18 0 28 7 16 11 16 14 3 27 -14 12 -14 15 1 26 22 17 9 16
-14 0z"/>
<path d="M4516 2803 c-6 -14 -5 -15 5 -6 7 7 10 15 7 18 -3 3 -9 -2 -12 -12z"/>
<path d="M4480 2675 c-7 -9 -8 -15 -2 -15 5 0 12 7 16 15 3 8 4 15 2 15 -2 0
-9 -7 -16 -15z"/>
<path d="M4487 2605 c-3 -6 3 -11 12 -11 10 0 18 5 18 11 0 7 -6 12 -13 12 -7
0 -15 -5 -17 -12z"/>
<path d="M4469 2507 c12 -16 11 -21 -15 -48 -33 -34 -40 -75 -13 -75 10 0 16
4 13 7 -2 4 0 10 6 14 6 4 8 10 5 15 -8 12 33 33 47 24 7 -4 8 -3 4 4 -4 7 -1
12 6 12 10 0 10 2 -1 9 -9 6 -10 10 -2 14 7 3 7 4 -1 3 -7 -2 -12 -9 -10 -16
1 -6 -3 -10 -10 -7 -7 2 -12 11 -10 19 1 9 -6 22 -15 29 -16 13 -17 12 -4 -4z
m3 -60 c-12 -6 -21 -17 -20 -25 2 -8 -4 -17 -12 -19 -13 -4 -13 -3 0 6 12 9
13 11 1 11 -10 0 -8 7 9 25 12 13 28 21 33 18 6 -4 1 -11 -11 -16z"/>
<path d="M4309 2218 c-8 -26 -5 -36 8 -31 11 4 12 8 3 13 -9 6 -9 9 1 13 10 4
10 6 2 6 -7 1 -13 0 -14 -1z"/>
<path d="M1230 1200 c0 -5 5 -12 10 -15 6 -3 10 -1 10 4 0 7 7 7 20 -1 11 -7
20 -18 20 -24 0 -7 7 -14 15 -18 13 -5 13 -3 0 18 -8 12 -12 26 -8 31 5 4 2 5
-4 1 -7 -4 -19 -4 -25 1 -19 11 -38 13 -38 3z"/>
<path d="M854 1179 c-9 -16 2 -22 21 -11 15 8 16 10 1 15 -8 3 -18 2 -22 -4z"/>
<path d="M4927 1195 c3 -8 9 -12 14 -9 12 7 11 11 -5 17 -10 4 -13 1 -9 -8z"/>
<path d="M5040 1180 c-13 -9 -13 -10 0 -10 12 0 12 -2 2 -9 -11 -7 -10 -10 3
-15 24 -9 42 5 21 16 -9 5 -14 13 -11 19 8 11 4 11 -15 -1z"/>
<path d="M4209 1173 c-1 -4 -1 -11 -1 -15 1 -3 -5 -9 -13 -12 -8 -3 -15 0 -15
6 0 8 -6 6 -16 -4 -15 -15 -15 -18 -1 -32 14 -15 16 -14 22 4 3 11 12 20 20
20 16 0 28 27 15 35 -6 4 -11 3 -11 -2z m-29 -43 c0 -5 -2 -10 -4 -10 -3 0 -8
5 -11 10 -3 6 -1 10 4 10 6 0 11 -4 11 -10z"/>
<path d="M4031 1128 c5 -10 11 -18 12 -18 2 0 3 8 3 18 0 10 -6 19 -13 19 -8
0 -9 -6 -2 -19z"/>
<path d="M3470 1016 c0 -9 5 -16 10 -16 6 0 10 4 10 9 0 6 -4 13 -10 16 -5 3
-10 -1 -10 -9z"/>
<path d="M3547 929 c7 -7 15 -10 18 -7 3 3 -2 9 -12 12 -14 6 -15 5 -6 -5z"/>
<path d="M3416 888 c3 -5 10 -6 15 -3 13 9 11 12 -6 12 -8 0 -12 -4 -9 -9z"/>
<path d="M3334 855 c-4 -8 -10 -15 -16 -15 -5 0 -6 6 -2 13 4 6 -2 3 -14 -7
-22 -20 -30 -32 -13 -21 6 3 15 -3 20 -14 14 -26 14 -34 -1 -25 -7 5 -8 3 -3
-6 6 -10 11 -9 21 5 7 10 11 22 8 26 -2 5 4 14 16 21 11 7 20 17 20 22 0 4 -8
2 -17 -5 -15 -12 -16 -12 -10 4 3 9 4 17 1 17 -2 0 -7 -7 -10 -15z m-4 -29
c-7 -7 -13 -7 -20 0 -6 6 -3 10 10 10 13 0 16 -4 10 -10z"/>
<path d="M3115 690 c3 -5 8 -10 11 -10 2 0 4 5 4 10 0 6 -5 10 -11 10 -5 0 -7
-4 -4 -10z"/>
<path d="M3019 644 c-16 -20 7 -25 25 -5 14 15 14 18 1 18 -8 0 -20 -6 -26
-13z"/>
<path d="M2977 582 c1 -8 3 -16 3 -19 0 -2 7 3 16 12 9 9 13 19 10 23 -4 3
-11 0 -15 -7 -5 -7 -11 -9 -13 -5 -3 5 -3 3 -1 -4z"/>
<path d="M4680 4416 c0 -2 8 -10 18 -17 15 -13 16 -12 3 4 -13 16 -21 21 -21
13z"/>
<path d="M4672 4374 c3 -3 12 -6 20 -8 7 -1 20 -5 28 -10 12 -7 13 -6 3 4 -7
8 -23 15 -35 17 -12 2 -19 1 -16 -3z"/>
<path d="M4810 4353 c0 -6 8 -17 18 -24 16 -13 16 -13 2 6 -8 11 -16 22 -17
24 -2 2 -3 0 -3 -6z"/>
<path d="M4677 4330 c-3 -11 -1 -20 4 -20 5 0 9 9 9 20 0 11 -2 20 -4 20 -2 0
-6 -9 -9 -20z"/>
<path d="M4756 4302 c-2 -4 -1 -14 4 -22 7 -11 9 -9 7 8 -1 24 -3 26 -11 14z"/>
<path d="M4780 4296 c0 -2 9 -6 20 -9 11 -3 18 -1 14 4 -5 9 -34 13 -34 5z"/>
<path d="M4830 4291 c0 -6 4 -13 10 -16 6 -3 7 1 4 9 -7 18 -14 21 -14 7z"/>
<path d="M4733 4272 c10 -11 15 -26 12 -35 -4 -8 -2 -18 4 -22 6 -3 9 0 5 8
-3 8 5 19 18 26 13 6 15 9 5 6 -10 -2 -20 1 -23 9 -3 8 -13 17 -22 21 -14 5
-14 3 1 -13z"/>
<path d="M4840 4205 c-7 -8 -17 -12 -23 -8 -6 4 -7 1 -3 -6 6 -9 13 -8 27 5
10 9 19 19 19 21 0 7 -8 2 -20 -12z"/>
<path d="M4788 4173 c7 -3 16 -2 19 1 4 3 -2 6 -13 5 -11 0 -14 -3 -6 -6z"/>
<path d="M4833 4136 c-2 -19 -1 -19 8 -3 6 9 16 14 22 11 7 -4 8 -3 4 1 -15
17 -33 12 -34 -9z"/>
<path d="M4797 4113 c-12 -11 -8 -23 7 -23 8 0 18 4 21 10 4 6 -1 7 -11 3 -12
-4 -15 -3 -10 5 8 13 3 16 -7 5z"/>
<path d="M4771 4066 c-9 -11 -9 -16 0 -22 7 -4 9 -3 5 4 -3 5 0 12 6 15 7 2
10 7 7 11 -3 4 -12 0 -18 -8z"/>
<path d="M4803 4053 c-7 -2 -13 -9 -13 -15 0 -7 5 -7 13 1 8 6 17 8 20 4 4 -3
7 -1 7 5 0 13 -7 14 -27 5z"/>
<path d="M4796 3994 c-4 -9 -4 -19 -1 -22 3 -3 5 0 5 7 0 7 4 9 10 6 6 -3 7 1
4 9 -8 20 -10 20 -18 0z"/>
<path d="M4799 3939 c-12 -24 3 -50 16 -28 5 8 4 10 -3 5 -15 -9 -15 -1 -2 25
6 10 8 19 6 19 -3 0 -10 -9 -17 -21z"/>
<path d="M4850 3949 c0 -5 5 -7 10 -4 6 3 10 8 10 11 0 2 -4 4 -10 4 -5 0 -10
-5 -10 -11z"/>
<path d="M4833 3893 c4 -3 1 -13 -6 -22 -11 -14 -10 -14 6 -2 20 15 22 31 5
31 -6 0 -8 -3 -5 -7z"/>
<path d="M4790 3859 c0 -5 5 -7 10 -4 6 3 10 8 10 11 0 2 -4 4 -10 4 -5 0 -10
-5 -10 -11z"/>
<path d="M4782 3785 c2 -1 12 -7 24 -13 15 -8 21 -8 21 1 0 7 -11 13 -24 13
-14 1 -23 1 -21 -1z"/>
<path d="M4771 3747 c-17 -21 8 -48 34 -36 18 9 18 9 -3 5 -17 -3 -22 0 -20
12 2 10 10 20 18 24 13 6 13 7 -1 7 -9 1 -22 -5 -28 -12z"/>
<path d="M4869 3733 c-13 -16 -12 -17 4 -4 9 7 17 15 17 17 0 8 -8 3 -21 -13z"/>
<path d="M4770 3682 c9 -19 30 -23 30 -5 0 4 -3 3 -7 0 -3 -4 -12 1 -20 11
-13 15 -13 15 -3 -6z"/>
<path d="M4800 3696 c0 -2 8 -10 18 -17 15 -13 16 -12 3 4 -13 16 -21 21 -21
13z"/>
<path d="M4747 3666 c-4 -10 -3 -15 3 -11 6 3 10 -2 11 -12 0 -10 3 -13 5 -6
3 7 1 20 -4 29 -8 15 -9 15 -15 0z"/>
<path d="M4846 3672 c-3 -5 1 -9 9 -9 8 0 12 4 9 9 -3 4 -7 8 -9 8 -2 0 -6 -4
-9 -8z"/>
<path d="M4789 3639 c-9 -17 -8 -20 2 -14 8 6 11 4 7 -7 -4 -8 -1 -15 6 -15 6
0 12 8 12 18 0 10 -5 15 -10 12 -5 -4 -7 1 -3 10 9 24 0 21 -14 -4z"/>
<path d="M4807 3576 c-16 -13 -16 -14 0 -27 12 -10 15 -11 9 -1 -4 7 -2 19 4
27 15 18 11 19 -13 1z"/>
<path d="M4847 3569 c7 -7 15 -10 18 -7 3 3 -2 9 -12 12 -14 6 -15 5 -6 -5z"/>
<path d="M4786 3525 c6 -14 4 -16 -6 -10 -8 5 -11 4 -7 -3 4 -5 16 -8 27 -5
12 3 19 6 18 7 -2 1 -11 8 -21 15 -15 12 -17 12 -11 -4z"/>
<path d="M4849 3493 c-13 -16 -12 -17 4 -4 9 7 17 15 17 17 0 8 -8 3 -21 -13z"/>
<path d="M4775 3470 c-3 -6 1 -7 9 -4 18 7 21 14 7 14 -6 0 -13 -4 -16 -10z"/>
<path d="M4795 3421 c-3 -5 -2 -12 3 -15 5 -3 9 1 9 9 0 17 -3 19 -12 6z"/>
<path d="M4770 3376 c0 -2 7 -7 16 -10 8 -3 12 -2 9 4 -6 10 -25 14 -25 6z"/>
<path d="M4738 3358 c6 -6 18 -8 28 -6 14 3 12 5 -9 10 -19 3 -25 2 -19 -4z"/>
<path d="M4741 3324 c0 -11 3 -14 6 -6 3 7 2 16 -1 19 -3 4 -6 -2 -5 -13z"/>
<path d="M4765 3330 c-3 -6 1 -7 9 -4 18 7 21 14 7 14 -6 0 -13 -4 -16 -10z"/>
<path d="M4741 3259 c-8 -15 -8 -24 1 -39 15 -24 25 -26 25 -5 0 8 -4 12 -8
10 -9 -6 -20 21 -12 29 4 3 12 1 20 -6 20 -16 22 -6 3 13 -16 15 -18 15 -29
-2z"/>
<path d="M4776 3268 c3 -5 10 -6 15 -3 13 9 11 12 -6 12 -8 0 -12 -4 -9 -9z"/>
<path d="M4709 3213 c-6 -41 -5 -74 2 -79 5 -3 6 2 3 10 -4 11 0 14 14 11 15
-2 19 2 17 18 -3 31 -3 31 -20 17 -18 -15 -20 1 -3 18 9 9 9 12 0 12 -7 0 -12
-3 -13 -7z m23 -45 c-7 -7 -12 -8 -12 -2 0 6 3 14 7 17 3 4 9 5 12 2 2 -3 -1
-11 -7 -17z"/>
<path d="M4796 3203 c-6 -14 -5 -15 5 -6 7 7 10 15 7 18 -3 3 -9 -2 -12 -12z"/>
<path d="M4786 3168 c3 -5 10 -6 15 -3 13 9 11 12 -6 12 -8 0 -12 -4 -9 -9z"/>
<path d="M4760 3161 c0 -6 4 -13 10 -16 6 -3 7 1 4 9 -7 18 -14 21 -14 7z"/>
<path d="M4734 3131 c4 -5 0 -12 -6 -14 -10 -4 -10 -6 0 -6 7 -1 11 -5 8 -9
-2 -4 -1 -14 3 -20 4 -8 8 2 8 23 0 19 -4 35 -9 35 -5 0 -7 -4 -4 -9z"/>
<path d="M4795 3090 c3 -5 8 -10 11 -10 2 0 4 5 4 10 0 6 -5 10 -11 10 -5 0
-7 -4 -4 -10z"/>
<path d="M4741 3044 c0 -11 3 -14 6 -6 3 7 2 16 -1 19 -3 4 -6 -2 -5 -13z"/>
<path d="M4786 3032 c-3 -5 1 -9 9 -9 8 0 12 4 9 9 -3 4 -7 8 -9 8 -2 0 -6 -4
-9 -8z"/>
<path d="M4735 3010 c-4 -6 -1 -9 7 -8 7 2 12 -2 11 -9 -2 -12 23 -12 32 0 3
4 2 5 -2 2 -3 -3 -14 2 -24 11 -11 10 -19 12 -24 4z"/>
<path d="M4710 2959 c0 -5 5 -7 10 -4 6 3 10 8 10 11 0 2 -4 4 -10 4 -5 0 -10
-5 -10 -11z"/>
<path d="M4748 2938 c2 -10 6 -18 7 -18 1 0 5 8 7 18 3 11 0 19 -7 19 -7 0
-10 -8 -7 -19z"/>
<path d="M4715 2909 c-4 -6 -4 -13 -1 -16 3 -4 6 -1 6 6 0 7 5 9 12 5 7 -4 8
-3 4 4 -9 15 -13 15 -21 1z"/>
<path d="M4663 2870 c2 -8 12 -16 23 -17 13 -2 15 -1 4 4 -8 3 -19 11 -23 17
-6 7 -7 6 -4 -4z"/>
<path d="M4731 2844 c0 -11 3 -14 6 -6 3 7 2 16 -1 19 -3 4 -6 -2 -5 -13z"/>
<path d="M4750 2856 c0 -2 7 -7 16 -10 8 -3 12 -2 9 4 -6 10 -25 14 -25 6z"/>
<path d="M4660 2829 c0 -5 5 -7 10 -4 6 3 10 8 10 11 0 2 -4 4 -10 4 -5 0 -10
-5 -10 -11z"/>
<path d="M4693 2833 c4 -6 2 -13 -5 -15 -8 -3 -6 -6 4 -10 17 -7 19 15 3 29
-4 4 -5 3 -2 -4z"/>
<path d="M4726 2812 c-3 -5 1 -9 9 -9 8 0 12 4 9 9 -3 4 -7 8 -9 8 -2 0 -6 -4
-9 -8z"/>
<path d="M4677 2785 c-4 -8 -3 -16 1 -19 4 -3 9 4 9 15 2 23 -3 25 -10 4z"/>
<path d="M4730 2749 c0 -5 5 -7 10 -4 6 3 10 8 10 11 0 2 -4 4 -10 4 -5 0 -10
-5 -10 -11z"/>
<path d="M4674 2739 c-3 -6 -1 -16 6 -22 10 -9 11 -9 5 2 -4 8 -2 17 6 22 9 6
10 9 2 9 -6 0 -15 -5 -19 -11z"/>
<path d="M4707 2709 c7 -7 15 -10 18 -7 3 3 -2 9 -12 12 -14 6 -15 5 -6 -5z"/>
<path d="M4632 2692 c0 -9 -2 -26 -6 -37 -5 -15 -4 -14 5 3 7 12 16 22 21 22
5 0 6 -5 2 -12 -4 -7 -3 -8 4 -4 15 9 15 9 -7 28 -18 16 -20 16 -19 0z"/>
<path d="M4716 2677 c3 -10 9 -15 12 -12 3 3 0 11 -7 18 -10 9 -11 8 -5 -6z"/>
<path d="M4632 2634 c-7 -8 -8 -14 -3 -14 10 0 25 19 20 25 -2 1 -10 -3 -17
-11z"/>
<path d="M4650 2608 c0 -11 12 -10 30 2 12 7 10 9 -8 7 -12 0 -22 -5 -22 -9z"/>
<path d="M4633 2565 c0 -14 3 -25 8 -25 4 0 6 10 4 21 -6 32 -12 34 -12 4z"/>
<path d="M4605 2570 c-3 -5 -1 -10 4 -10 6 0 11 5 11 10 0 6 -2 10 -4 10 -3 0
-8 -4 -11 -10z"/>
<path d="M4580 2551 c0 -9 30 -24 36 -18 2 1 -6 8 -16 15 -11 7 -20 8 -20 3z"/>
<path d="M4580 2509 c0 -5 5 -7 10 -4 6 3 10 8 10 11 0 2 -4 4 -10 4 -5 0 -10
-5 -10 -11z"/>
<path d="M4693 2501 c0 -11 5 -18 9 -15 4 3 5 11 1 19 -7 21 -12 19 -10 -4z"/>
<path d="M4599 2438 c-1 -2 -3 -13 -4 -25 -3 -24 20 -21 29 4 6 14 4 14 -11 2
-15 -12 -16 -12 -10 4 5 13 1 26 -4 15z"/>
<path d="M4565 2409 c-4 -6 -5 -12 -2 -15 2 -3 7 2 10 11 7 17 1 20 -8 4z"/>
<path d="M4654 2389 c-4 -7 -3 -9 4 -5 6 3 15 -2 21 -11 6 -10 11 -13 11 -7 0
20 -27 37 -36 23z"/>
<path d="M4609 2373 c-13 -16 -12 -17 4 -4 16 13 21 21 13 21 -2 0 -10 -8 -17
-17z"/>
<path d="M4570 2370 c0 -5 5 -10 10 -10 6 0 10 5 10 10 0 6 -4 10 -10 10 -5 0
-10 -4 -10 -10z"/>
<path d="M4554 2339 c-3 -6 -2 -15 3 -20 5 -5 9 -1 10 11 2 22 -2 25 -13 9z"/>
<path d="M4516 2265 c-3 -9 3 -19 16 -26 16 -9 19 -8 13 2 -6 9 -3 10 11 5 10
-4 15 -4 11 0 -4 4 -1 14 6 23 9 12 7 11 -13 -2 -30 -21 -41 -22 -34 -2 4 8 4
15 1 15 -3 0 -7 -7 -11 -15z"/>
<path d="M4549 2213 c-13 -16 -12 -17 4 -4 16 13 21 21 13 21 -2 0 -10 -8 -17
-17z"/>
<path d="M4515 2189 c-4 -6 -5 -12 -2 -15 2 -3 7 2 10 11 7 17 1 20 -8 4z"/>
<path d="M5175 1999 c-4 -6 -5 -12 -2 -15 2 -3 7 2 10 11 7 17 1 20 -8 4z"/>
<path d="M5095 1980 c6 -30 16 -40 12 -12 -2 12 -6 24 -10 28 -3 4 -4 -4 -2
-16z"/>
<path d="M5106 1928 c3 -4 9 -8 15 -8 5 0 9 4 9 8 0 5 -7 9 -15 9 -8 0 -12 -4
-9 -9z"/>
<path d="M5193 1922 c-8 -14 -8 -19 1 -19 7 0 13 9 13 19 1 10 1 18 0 18 -1 0
-7 -8 -14 -18z"/>
<path d="M5230 1930 c0 -5 5 -10 11 -10 5 0 7 5 4 10 -3 6 -8 10 -11 10 -2 0
-4 -4 -4 -10z"/>
<path d="M5135 1905 c-3 -8 -7 -22 -10 -31 -3 -8 0 -12 5 -9 6 3 10 15 10 25
0 13 5 17 15 14 8 -4 15 -4 15 -1 0 13 -31 15 -35 2z"/>
<path d="M5219 1883 c-13 -16 -12 -17 4 -4 16 13 21 21 13 21 -2 0 -10 -8 -17
-17z"/>
<path d="M5158 1873 c7 -3 16 -2 19 1 4 3 -2 6 -13 5 -11 0 -14 -3 -6 -6z"/>
<path d="M5144 1851 c4 -5 0 -12 -6 -14 -10 -4 -10 -6 -1 -6 7 -1 10 -7 7 -15
-7 -18 9 -28 31 -20 14 6 14 8 -4 21 -11 7 -18 20 -15 28 4 8 1 15 -6 15 -6 0
-9 -4 -6 -9z m21 -41 c3 -5 1 -10 -4 -10 -6 0 -11 5 -11 10 0 6 2 10 4 10 3 0
8 -4 11 -10z"/>
<path d="M5174 1843 c3 -20 22 -28 31 -14 3 7 0 8 -10 5 -11 -5 -14 -2 -9 10
3 9 2 16 -4 16 -6 0 -9 -8 -8 -17z"/>
<path d="M5230 1830 c13 -9 7 -14 -12 -11 -4 0 -5 -6 -1 -15 3 -8 6 -14 7 -12
1 2 9 12 18 23 17 20 16 21 -5 22 -17 2 -19 0 -7 -7z"/>
<path d="M5194 1789 c-11 -18 14 -35 29 -20 10 10 9 11 -6 5 -13 -5 -16 -2
-11 10 7 18 -1 22 -12 5z"/>
<path d="M5290 1791 c0 -6 4 -13 10 -16 6 -3 7 1 4 9 -7 18 -14 21 -14 7z"/>
<path d="M5231 1755 c1 -19 18 -51 18 -35 0 8 -4 22 -9 30 -5 8 -9 11 -9 5z"/>
<path d="M5276 1737 c3 -10 9 -15 12 -12 3 3 0 11 -7 18 -10 9 -11 8 -5 -6z"/>
<path d="M5250 1696 c0 -2 7 -7 16 -10 8 -3 12 -2 9 4 -6 10 -25 14 -25 6z"/>
<path d="M5216 1679 c3 -5 13 -9 24 -9 13 0 17 -6 14 -22 -4 -21 -4 -21 5 -3
11 25 7 31 -24 37 -13 3 -22 1 -19 -3z"/>
<path d="M5275 1651 c-3 -5 -2 -12 3 -15 5 -3 9 1 9 9 0 17 -3 19 -12 6z"/>
<path d="M5225 1621 c-3 -12 -11 -19 -16 -16 -5 4 -9 4 -9 1 0 -3 9 -10 19
-15 16 -9 18 -8 14 12 -4 18 -3 19 6 7 13 -18 15 -1 2 19 -7 11 -10 9 -16 -8z"/>
<path d="M5290 1610 c0 -5 9 -8 20 -7 21 1 18 10 -5 13 -8 1 -15 -2 -15 -6z"/>
<path d="M5257 1593 c-4 -3 -7 -13 -7 -22 1 -13 3 -13 11 2 11 19 8 33 -4 20z"/>
<path d="M5323 1568 c-9 -15 -17 -65 -9 -57 3 3 7 14 9 25 1 10 6 25 10 32 5
6 6 12 3 12 -3 0 -8 -6 -13 -12z"/>
<path d="M5270 1560 c0 -5 7 -7 15 -4 8 4 15 8 15 10 0 2 -7 4 -15 4 -8 0 -15
-4 -15 -10z"/>
<path d="M5335 1531 c-3 -5 -2 -12 3 -15 5 -3 9 1 9 9 0 17 -3 19 -12 6z"/>
<path d="M5300 1475 c0 -8 29 -12 39 -5 9 5 4 8 -13 8 -14 0 -26 -2 -26 -3z"/>
<path d="M5350 1448 c0 -4 4 -8 9 -8 6 0 12 4 15 8 3 5 -1 9 -9 9 -8 0 -15 -4
-15 -9z"/>
<path d="M5312 1431 c-11 -6 -10 -10 4 -15 9 -4 22 -2 28 4 8 8 6 9 -8 4 -13
-5 -17 -4 -12 4 8 14 6 15 -12 3z"/>
<path d="M5334 1392 c4 -7 2 -12 -5 -12 -7 0 -10 -3 -6 -6 3 -4 -1 -13 -9 -21
-8 -8 -12 -19 -9 -24 4 -5 8 -18 10 -30 3 -15 0 -19 -10 -15 -9 3 -12 0 -8
-10 4 -12 8 -12 21 -2 13 11 14 10 7 -11 -6 -21 -5 -22 8 -10 13 12 13 16 2
28 -12 12 -12 17 3 29 15 12 15 13 0 8 -9 -2 -19 2 -22 10 -3 8 -2 14 3 14 15
0 31 49 19 56 -7 4 -8 3 -4 -4z"/>
<path d="M5387 1389 c7 -7 15 -10 18 -7 3 3 -2 9 -12 12 -14 6 -15 5 -6 -5z"/>
<path d="M5274 1378 c-4 -7 -3 -8 4 -4 7 4 12 3 12 -3 0 -5 -5 -11 -12 -13 -7
-3 -8 -7 -2 -11 5 -3 15 3 22 13 9 14 8 19 -3 24 -8 3 -17 0 -21 -6z"/>
<path d="M5356 1345 c-11 -8 -16 -15 -10 -15 5 0 18 7 28 15 11 8 16 15 10 15
-5 0 -18 -7 -28 -15z"/>
<path d="M5397 1322 c-15 -16 -15 -19 -2 -19 8 0 13 3 10 5 -3 3 0 11 6 19 17
20 5 16 -14 -5z"/>
<path d="M5350 1290 c0 -5 5 -10 10 -10 6 0 10 5 10 10 0 6 -4 10 -10 10 -5 0
-10 -4 -10 -10z"/>
<path d="M5395 1271 c-3 -5 -2 -12 3 -15 5 -3 9 1 9 9 0 17 -3 19 -12 6z"/>
<path d="M5348 1243 c6 -2 18 -2 25 0 6 3 1 5 -13 5 -14 0 -19 -2 -12 -5z"/>
<path d="M5390 1230 c0 -5 5 -10 10 -10 6 0 10 5 10 10 0 6 -4 10 -10 10 -5 0
-10 -4 -10 -10z"/>
<path d="M5370 1200 c9 -17 30 -20 30 -4 0 3 -4 2 -10 -1 -5 -3 -10 1 -10 9 0
9 -5 16 -10 16 -7 0 -7 -7 0 -20z"/>
<path d="M597 1193 c3 -7 6 -13 8 -13 2 0 5 6 8 13 3 8 -1 14 -8 14 -7 0 -11
-6 -8 -14z"/>
<path d="M4139 1193 c-13 -16 -12 -17 4 -4 16 13 21 21 13 21 -2 0 -10 -8 -17
-17z"/>
<path d="M550 1178 l-25 -20 29 17 c26 16 28 16 23 1 -4 -9 -2 -16 3 -16 12 0
13 27 2 34 -4 2 -19 -5 -32 -16z"/>
<path d="M1814 1185 c3 -19 42 -29 52 -13 9 15 -7 30 -20 19 -9 -7 -16 -7 -24
1 -8 8 -10 6 -8 -7z"/>
<path d="M4093 1185 c0 -8 4 -12 9 -9 5 3 6 10 3 15 -9 13 -12 11 -12 -6z"/>
<path d="M5350 1195 c0 -5 10 -21 21 -35 13 -17 17 -18 10 -5 -17 33 -31 51
-31 40z"/>
<path d="M5395 1171 c-6 -11 13 -26 22 -17 4 3 1 6 -6 6 -7 0 -9 5 -6 10 3 6
4 10 1 10 -3 0 -7 -4 -11 -9z"/>
<path d="M592 1154 c-7 -8 -8 -14 -3 -14 10 0 25 19 20 25 -2 1 -10 -3 -17
-11z"/>
<path d="M496 1148 c3 -5 10 -6 15 -3 13 9 11 12 -6 12 -8 0 -12 -4 -9 -9z"/>
<path d="M3897 1146 c-3 -8 1 -20 9 -26 8 -7 14 -9 14 -5 0 4 6 2 14 -4 10 -8
16 -9 21 -1 4 6 1 9 -7 8 -7 -2 -12 5 -11 15 0 10 -2 16 -5 13 -3 -3 -11 -1
-17 4 -9 7 -14 6 -18 -4z"/>
<path d="M5350 1151 c0 -6 4 -13 10 -16 6 -3 7 1 4 9 -7 18 -14 21 -14 7z"/>
<path d="M1961 1136 c-8 -10 -9 -16 -1 -21 5 -3 10 -5 11 -3 4 18 7 38 4 38
-1 0 -8 -6 -14 -14z"/>
<path d="M556 1123 c-6 -14 -5 -15 5 -6 7 7 10 15 7 18 -3 3 -9 -2 -12 -12z"/>
<path d="M5260 1130 c0 -5 5 -10 10 -10 6 0 10 5 10 10 0 6 -4 10 -10 10 -5 0
-10 -4 -10 -10z"/>
<path d="M3820 1103 c-22 -23 -22 -25 -4 -15 14 7 24 8 31 1 6 -6 14 -4 24 8
7 10 9 15 5 11 -5 -4 -14 -1 -20 7 -9 12 -15 11 -36 -12z"/>
<path d="M619 1118 c-6 -21 -5 -37 2 -32 5 3 7 9 4 14 -3 4 1 11 7 13 10 4 10
6 1 6 -7 1 -13 0 -14 -1z"/>
<path d="M1265 1108 c-2 -7 -5 -19 -7 -27 -3 -11 -10 -8 -26 9 -12 13 -25 20
-29 17 -3 -4 -1 -7 6 -7 7 0 10 -4 7 -9 -6 -10 39 -32 48 -24 3 4 6 15 6 25 0
22 16 24 24 3 3 -8 10 -15 16 -15 5 0 2 9 -7 20 -20 23 -32 25 -38 8z"/>
<path d="M5285 1110 c-3 -5 -2 -10 4 -10 5 0 13 5 16 10 3 6 2 10 -4 10 -5 0
-13 -4 -16 -10z"/>
<path d="M5350 1110 c0 -5 5 -10 10 -10 6 0 10 5 10 10 0 6 -4 10 -10 10 -5 0
-10 -4 -10 -10z"/>
<path d="M5446 1112 c-3 -5 1 -9 9 -9 8 0 12 4 9 9 -3 4 -7 8 -9 8 -2 0 -6 -4
-9 -8z"/>
<path d="M1052 1098 c2 -6 10 -13 16 -14 7 -1 8 0 2 3 -5 2 -8 9 -4 14 3 5 0
9 -6 9 -7 0 -10 -5 -8 -12z"/>
<path d="M1087 1094 c3 -7 9 -14 14 -14 14 0 10 17 -5 23 -10 4 -13 1 -9 -9z"/>
<path d="M1163 1095 c-3 -9 -3 -19 1 -22 3 -4 6 1 6 10 0 8 6 18 13 20 9 4 9
6 -1 6 -7 1 -15 -6 -19 -14z"/>
<path d="M1337 1103 c-10 -10 -8 -23 4 -23 5 0 8 4 5 9 -4 5 0 12 6 14 7 3 8
6 2 6 -6 1 -14 -2 -17 -6z"/>
<path d="M1376 1103 c6 -4 14 -15 17 -23 5 -11 6 -9 4 4 -1 11 -9 21 -17 23
-10 3 -11 2 -4 -4z"/>
<path d="M1463 1103 c-15 -5 -17 -23 -4 -23 5 0 11 7 15 15 3 8 4 15 3 14 -1
0 -8 -3 -14 -6z"/>
<path d="M1494 1101 c4 -5 1 -12 -4 -14 -6 -3 -5 -4 2 -3 15 3 23 26 8 26 -6
0 -9 -4 -6 -9z"/>
<path d="M1643 1095 c-3 -9 -3 -19 1 -22 3 -4 6 1 6 10 0 8 6 18 13 20 9 4 9
6 -1 6 -7 1 -15 -6 -19 -14z"/>
<path d="M1696 1093 c10 -7 25 -12 33 -12 12 1 12 2 -2 6 -9 2 -15 8 -13 12 3
4 -4 7 -15 7 -19 0 -19 -1 -3 -13z"/>
<path d="M4937 1103 c-10 -10 -8 -23 4 -23 5 0 8 4 5 9 -4 5 0 12 6 14 7 3 8
6 2 6 -6 1 -14 -2 -17 -6z"/>
<path d="M5063 1103 c-15 -5 -17 -23 -4 -23 5 0 11 7 15 15 3 8 4 15 3 14 -1
0 -8 -3 -14 -6z"/>
<path d="M5094 1101 c4 -5 1 -12 -4 -14 -6 -3 -5 -4 2 -3 15 3 23 26 8 26 -6
0 -9 -4 -6 -9z"/>
<path d="M5241 1101 c-7 -5 -12 -13 -10 -18 2 -5 12 -1 22 9 18 19 12 24 -12
9z"/>
<path d="M715 1090 c27 -12 43 -12 25 0 -8 5 -22 9 -30 9 -10 0 -8 -3 5 -9z"/>
<path d="M1033 1082 c0 -12 5 -22 9 -22 11 0 10 12 -2 30 -7 12 -9 10 -7 -8z"/>
<path d="M1516 1085 c-9 -26 -7 -32 5 -12 6 10 9 21 6 23 -2 3 -7 -2 -11 -11z"/>
<path d="M4215 1090 c3 -5 16 -10 28 -9 21 0 21 1 2 9 -28 12 -37 12 -30 0z"/>
<path d="M4283 1085 c-15 -16 -16 -25 -5 -25 4 0 13 9 20 20 14 23 3 26 -15 5z"/>
<path d="M4336 1085 c4 -11 2 -13 -9 -9 -8 3 -17 1 -21 -4 -3 -5 5 -8 17 -7
21 2 39 35 18 35 -6 0 -8 -7 -5 -15z"/>
<path d="M4452 1083 c2 -9 11 -17 21 -19 9 -1 15 2 11 7 -3 5 -10 6 -16 3 -7
-5 -9 -1 -5 9 3 10 2 17 -4 17 -6 0 -9 -7 -7 -17z"/>
<path d="M4535 1090 c-8 -13 5 -13 25 0 13 8 13 10 -2 10 -9 0 -20 -4 -23 -10z"/>
<path d="M4702 1075 c-15 -32 -15 -35 0 -35 6 0 8 3 5 6 -12 13 13 43 30 37
11 -4 14 -3 9 5 -12 20 -32 14 -44 -13z"/>
<path d="M4775 1090 c-8 -13 5 -13 25 0 13 8 13 10 -2 10 -9 0 -20 -4 -23 -10z"/>
<path d="M4991 1084 c0 -11 3 -14 6 -6 3 7 2 16 -1 19 -3 4 -6 -2 -5 -13z"/>
<path d="M5198 1093 c7 -3 16 -2 19 1 4 3 -2 6 -13 5 -11 0 -14 -3 -6 -6z"/>
<path d="M5318 1093 c7 -3 16 -2 19 1 4 3 -2 6 -13 5 -11 0 -14 -3 -6 -6z"/>
<path d="M5374 1089 c-3 -6 -3 -13 0 -16 3 -4 6 -1 6 5 0 6 7 9 15 6 8 -4 15
-4 15 -1 0 11 -30 16 -36 6z"/>
<path d="M637 1083 c-4 -6 0 -13 8 -17 8 -3 17 0 21 6 4 6 3 8 -4 4 -5 -3 -12
-1 -14 6 -3 8 -6 9 -11 1z"/>
<path d="M1117 1076 c-4 -11 -5 -21 -2 -24 3 -3 5 0 5 7 0 7 4 10 9 6 5 -3 13
0 17 6 4 7 3 9 -4 5 -5 -3 -12 -1 -14 6 -3 7 -7 5 -11 -6z"/>
<path d="M1356 1075 c-9 -26 -7 -32 5 -12 6 10 9 21 6 23 -2 3 -7 -2 -11 -11z"/>
<path d="M1430 1083 c0 -6 9 -21 21 -34 l20 -24 -17 30 c-24 39 -24 40 -24 28z"/>
<path d="M1586 1077 c-15 -11 -16 -16 -6 -22 9 -6 11 -4 5 5 -6 10 -3 12 13 8
12 -4 25 -1 29 4 3 6 1 8 -5 4 -5 -3 -12 -1 -14 4 -2 7 -10 6 -22 -3z"/>
<path d="M1670 1080 c0 -5 6 -10 14 -10 10 0 13 -8 11 -21 -3 -12 -1 -19 2
-15 14 14 10 37 -8 46 -13 7 -19 7 -19 0z"/>
<path d="M1839 1080 c-5 -28 -3 -33 14 -36 9 -1 17 2 17 8 0 6 -7 7 -16 4 -12
-4 -14 -1 -9 14 4 11 4 20 1 20 -3 0 -7 -4 -7 -10z"/>
<path d="M4631 1086 c2 -2 15 -9 29 -15 24 -11 24 -11 6 3 -16 13 -49 24 -35
12z"/>
<path d="M4956 1073 c-6 -14 -5 -15 5 -6 7 7 10 15 7 18 -3 3 -9 -2 -12 -12z"/>
<path d="M5030 1085 c0 -5 5 -17 10 -25 5 -8 10 -10 10 -5 0 6 -5 17 -10 25
-5 8 -10 11 -10 5z"/>
<path d="M5115 1079 c-4 -6 -4 -13 -1 -16 3 -4 6 -1 6 6 0 9 5 9 20 1 11 -6
20 -8 20 -6 0 13 -39 26 -45 15z"/>
<path d="M5270 1080 c0 -6 7 -10 15 -10 8 0 15 2 15 4 0 2 -7 6 -15 10 -8 3
-15 1 -15 -4z"/>
<path d="M830 1070 c0 -5 7 -6 17 -3 12 5 14 3 8 -7 -5 -9 -4 -11 4 -6 6 4 9
12 6 17 -8 12 -35 12 -35 -1z"/>
<path d="M1271 1057 c-13 -21 -12 -21 5 -5 10 10 16 20 13 22 -3 3 -11 -5 -18
-17z"/>
<path d="M1531 1062 c-8 -15 -6 -18 14 -18 13 0 21 4 19 8 -3 5 -10 5 -16 2
-7 -5 -9 -1 -5 9 9 23 0 22 -12 -1z"/>
<path d="M4133 1065 c-3 -9 -1 -21 5 -27 8 -8 9 -4 5 13 -6 22 -5 23 11 10 9
-8 18 -12 21 -10 2 3 -5 10 -16 17 -16 10 -20 10 -26 -3z"/>
<path d="M4348 1058 c-10 -10 -14 -18 -9 -18 10 0 36 29 30 34 -2 1 -12 -6
-21 -16z"/>
<path d="M4430 1071 c0 -6 4 -13 10 -16 6 -3 7 1 4 9 -7 18 -14 21 -14 7z"/>
<path d="M4555 1071 c-3 -7 0 -8 10 -5 11 5 14 2 9 -10 -3 -9 -2 -16 4 -16 13
0 8 33 -5 37 -6 2 -14 -1 -18 -6z"/>
<path d="M4604 1069 c-4 -7 -3 -9 4 -5 5 3 13 0 15 -6 4 -9 6 -10 6 -1 1 17
-16 25 -25 12z"/>
<path d="M4795 1070 c-4 -6 1 -7 11 -3 13 5 15 3 9 -7 -5 -9 -4 -11 4 -6 6 4
9 12 6 17 -8 12 -22 12 -30 -1z"/>
<path d="M4844 1068 c-5 -7 -3 -8 6 -3 9 6 12 4 8 -7 -4 -8 0 -15 7 -15 10 0
11 5 4 19 -11 21 -15 22 -25 6z"/>
<path d="M4904 1069 c-4 -7 -3 -9 4 -5 5 3 13 0 15 -6 4 -9 6 -10 6 -1 1 17
-16 25 -25 12z"/>
<path d="M5179 1078 c-6 -22 -5 -38 3 -38 6 0 8 6 5 14 -3 8 -1 17 6 20 9 3 9
5 0 5 -7 1 -13 0 -14 -1z"/>
<path d="M715 1060 c-3 -5 -1 -10 4 -10 6 0 11 5 11 10 0 6 -2 10 -4 10 -3 0
-8 -4 -11 -10z"/>
<path d="M755 1061 c4 -7 1 -20 -6 -29 -12 -15 -12 -15 7 1 11 9 24 14 27 10
4 -3 7 -3 7 0 0 3 -10 11 -21 18 -16 8 -20 8 -14 0z"/>
<path d="M796 1057 c3 -10 9 -15 12 -12 3 3 0 11 -7 18 -10 9 -11 8 -5 -6z"/>
<path d="M1065 1057 c-15 -12 -16 -15 -4 -22 8 -5 11 -5 7 0 -4 4 0 14 10 21
23 18 11 18 -13 1z"/>
<path d="M1317 1056 c-3 -8 2 -20 11 -27 14 -11 15 -11 5 0 -6 7 -9 20 -6 27
3 8 3 14 0 14 -3 0 -7 -6 -10 -14z"/>
<path d="M1730 1060 c-9 -6 -10 -10 -3 -10 6 0 15 5 18 10 8 12 4 12 -15 0z"/>
<path d="M3744 1055 c-5 -13 -9 -14 -15 -4 -4 8 -11 11 -14 8 -3 -4 0 -11 7
-17 9 -7 18 -7 31 3 12 8 14 15 8 20 -6 3 -14 -1 -17 -10z"/>
<path d="M3990 1060 c-9 -6 -10 -10 -3 -10 6 0 15 5 18 10 8 12 4 12 -15 0z"/>
<path d="M4017 1055 c-4 -8 -3 -16 1 -19 4 -3 9 4 9 15 2 23 -3 25 -10 4z"/>
<path d="M4090 1060 c-8 -5 -12 -12 -9 -15 4 -3 12 1 19 10 14 17 11 19 -10 5z"/>
<path d="M4508 1063 c6 -2 18 -2 25 0 6 3 1 5 -13 5 -14 0 -19 -2 -12 -5z"/>
<path d="M4748 1063 c6 -2 18 -2 25 0 6 3 1 5 -13 5 -14 0 -19 -2 -12 -5z"/>
<path d="M5073 1056 c3 -7 0 -20 -6 -27 -10 -11 -9 -11 5 0 15 11 15 41 1 41
-3 0 -3 -6 0 -14z"/>
<path d="M879 1058 c-5 -18 -6 -38 -1 -34 7 8 12 36 6 36 -2 0 -4 -1 -5 -2z"/>
<path d="M1008 1053 c6 -2 10 -9 7 -14 -4 -5 1 -6 10 -2 13 5 14 7 3 14 -7 5
-17 8 -23 8 -5 0 -4 -3 3 -6z"/>
<path d="M1370 1052 c0 -5 7 -9 15 -9 8 0 12 4 9 9 -3 4 -9 8 -15 8 -5 0 -9
-4 -9 -8z"/>
<path d="M1759 1050 c-3 -20 -4 -25 -13 -40 -7 -12 -6 -13 4 -3 13 12 25 53
15 53 -3 0 -6 -4 -6 -10z"/>
<path d="M4040 1051 c0 -5 7 -12 16 -15 14 -5 15 -4 4 9 -14 17 -20 19 -20 6z"/>
<path d="M4245 1050 c3 -5 8 -10 11 -10 2 0 4 5 4 10 0 6 -5 10 -11 10 -5 0
-7 -4 -4 -10z"/>
<path d="M4385 1050 c3 -5 8 -10 11 -10 2 0 4 5 4 10 0 6 -5 10 -11 10 -5 0
-7 -4 -4 -10z"/>
<path d="M4640 1045 c-7 -8 -9 -15 -5 -15 4 0 1 -8 -6 -17 -13 -16 -12 -17 4
-4 9 8 15 16 12 19 -3 3 0 11 6 19 6 7 9 13 6 13 -2 0 -10 -7 -17 -15z"/>
<path d="M5244 1052 c4 -3 14 -7 22 -8 9 -1 13 0 10 4 -4 3 -14 7 -22 8 -9 1
-13 0 -10 -4z"/>
<path d="M5395 1049 c-3 -4 2 -6 10 -5 21 3 28 13 10 13 -9 0 -18 -4 -20 -8z"/>
<path d="M1192 1041 c-11 -7 -11 -9 0 -14 9 -3 15 1 15 9 0 8 -1 14 -1 14 -1
0 -7 -4 -14 -9z"/>
<path d="M2070 1040 c0 -5 5 -10 11 -10 5 0 7 5 4 10 -3 6 -8 10 -11 10 -2 0
-4 -4 -4 -10z"/>
<path d="M4936 1042 c-2 -4 4 -8 14 -8 10 0 16 4 14 8 -3 4 -9 8 -14 8 -5 0
-11 -4 -14 -8z"/>
<path d="M706 1028 c3 -5 10 -6 15 -3 13 9 11 12 -6 12 -8 0 -12 -4 -9 -9z"/>
<path d="M906 1030 c5 -8 9 -18 9 -22 0 -3 3 -9 7 -13 3 -4 5 0 4 9 -1 9 -8
22 -16 29 -10 10 -11 9 -4 -3z"/>
<path d="M1119 1023 c-13 -16 -12 -17 4 -4 9 7 17 15 17 17 0 8 -8 3 -21 -13z"/>
<path d="M1247 1029 c7 -7 15 -10 18 -7 3 3 -2 9 -12 12 -14 6 -15 5 -6 -5z"/>
<path d="M1590 1026 c7 -7 13 -7 20 0 6 6 3 10 -10 10 -13 0 -16 -4 -10 -10z"/>
<path d="M1639 1023 c-13 -16 -12 -17 4 -4 16 13 21 21 13 21 -2 0 -10 -8 -17
-17z"/>
<path d="M1791 1023 c7 -12 15 -20 18 -17 3 2 -3 12 -13 22 -17 16 -18 16 -5
-5z"/>
<path d="M1875 1031 c-3 -5 -2 -12 3 -15 5 -3 9 1 9 9 0 17 -3 19 -12 6z"/>
<path d="M3911 1017 c-13 -21 -12 -21 5 -5 10 10 16 20 13 22 -3 3 -11 -5 -18
-17z"/>
<path d="M4111 1023 c7 -12 15 -20 18 -17 3 2 -3 12 -13 22 -17 16 -18 16 -5
-5z"/>
<path d="M4359 1023 c-13 -16 -12 -17 4 -4 9 7 17 15 17 17 0 8 -8 3 -21 -13z"/>
<path d="M4420 1030 c-9 -6 -10 -10 -3 -10 6 0 15 5 18 10 8 12 4 12 -15 0z"/>
<path d="M4746 1030 c5 -8 9 -18 9 -22 0 -3 3 -9 7 -13 3 -4 5 0 4 9 -1 9 -8
22 -16 29 -10 10 -11 9 -4 -3z"/>
<path d="M4800 1030 c-9 -6 -10 -10 -3 -10 6 0 15 5 18 10 8 12 4 12 -15 0z"/>
<path d="M4988 1033 c7 -3 16 -2 19 1 4 3 -2 6 -13 5 -11 0 -14 -3 -6 -6z"/>
<path d="M5026 1028 c3 -5 10 -6 15 -3 13 9 11 12 -6 12 -8 0 -12 -4 -9 -9z"/>
<path d="M5140 1036 c0 -2 8 -10 18 -17 15 -13 16 -12 3 4 -13 16 -21 21 -21
13z"/>
<path d="M2095 1020 c-4 -6 -12 -7 -18 -4 -7 4 -9 4 -5 -1 4 -4 0 -14 -10 -22
-10 -9 -11 -12 -2 -7 8 4 23 14 33 22 19 17 24 3 5 -16 -8 -8 -9 -12 -1 -12 6
0 13 5 15 11 3 9 10 9 26 0 31 -16 27 -9 -7 17 -18 13 -32 18 -36 12z"/>
<path d="M4313 1015 c0 -8 4 -12 9 -9 5 3 6 10 3 15 -9 13 -12 11 -12 -6z"/>
<path d="M4536 1017 c3 -10 9 -15 12 -12 3 3 0 11 -7 18 -10 9 -11 8 -5 -6z"/>
<path d="M4853 1015 c0 -8 4 -15 9 -15 4 0 8 4 8 9 0 6 -4 12 -8 15 -5 3 -9
-1 -9 -9z"/>
<path d="M5215 1021 c-3 -5 -2 -12 3 -15 5 -3 9 1 9 9 0 17 -3 19 -12 6z"/>
<path d="M5256 1017 c3 -10 9 -15 12 -12 3 3 0 11 -7 18 -10 9 -11 8 -5 -6z"/>
<path d="M1050 1010 c0 -5 5 -10 11 -10 5 0 7 5 4 10 -3 6 -8 10 -11 10 -2 0
-4 -4 -4 -10z"/>
<path d="M1153 1005 c0 -8 4 -12 9 -9 5 3 6 10 3 15 -9 13 -12 11 -12 -6z"/>
<path d="M1300 1016 c0 -2 8 -10 18 -17 15 -13 16 -12 3 4 -13 16 -21 21 -21
13z"/>
<path d="M1434 1012 c4 -3 14 -7 22 -8 9 -1 13 0 10 4 -4 3 -14 7 -22 8 -9 1
-13 0 -10 -4z"/>
<path d="M1897 1005 c-4 -8 -3 -16 1 -19 4 -3 9 4 9 15 2 23 -3 25 -10 4z"/>
<path d="M1926 1008 c3 -5 10 -6 15 -3 13 9 11 12 -6 12 -8 0 -12 -4 -9 -9z"/>
<path d="M3531 1001 c-13 -10 -20 -20 -15 -23 14 -7 54 -4 54 5 0 4 0 14 0 22
0 20 -10 19 -39 -4z"/>
<path d="M3870 1010 c0 -5 5 -10 11 -10 5 0 7 5 4 10 -3 6 -8 10 -11 10 -2 0
-4 -4 -4 -10z"/>
<path d="M3936 1012 c-3 -5 1 -9 9 -9 8 0 12 4 9 9 -3 4 -7 8 -9 8 -2 0 -6 -4
-9 -8z"/>
<path d="M4199 1003 c-13 -16 -12 -17 4 -4 9 7 17 15 17 17 0 8 -8 3 -21 -13z"/>
<path d="M756 997 c3 -10 9 -15 12 -12 3 3 0 11 -7 18 -10 9 -11 8 -5 -6z"/>
<path d="M1999 1008 c-5 -19 -8 -50 -4 -46 7 7 15 48 9 48 -2 0 -4 -1 -5 -2z"/>
<path d="M4275 999 c-4 -6 -5 -12 -2 -15 2 -3 7 2 10 11 7 17 1 20 -8 4z"/>
<path d="M1116 992 c-3 -5 1 -9 9 -9 8 0 12 4 9 9 -3 4 -7 8 -9 8 -2 0 -6 -4
-9 -8z"/>
<path d="M1596 988 c3 -4 11 -5 19 -1 21 7 19 12 -4 10 -11 0 -18 -5 -15 -9z"/>
<path d="M1695 990 c-3 -5 -1 -10 4 -10 6 0 11 5 11 10 0 6 -2 10 -4 10 -3 0
-8 -4 -11 -10z"/>
<path d="M1770 996 c0 -2 7 -7 16 -10 8 -3 12 -2 9 4 -6 10 -25 14 -25 6z"/>
<path d="M3415 979 c-7 -21 -25 -26 -25 -6 0 6 -5 4 -11 -6 -6 -9 -14 -15 -20
-12 -8 5 -13 -9 -6 -18 1 -2 -5 -12 -13 -22 -13 -17 -13 -18 0 -10 8 6 23 10
33 11 34 3 37 4 37 14 0 6 -3 9 -7 9 -21 -3 -33 2 -27 12 4 8 9 7 15 -2 5 -8
9 -10 9 -5 0 4 11 1 25 -8 18 -12 24 -13 23 -4 -2 7 5 13 14 13 10 0 19 5 20
10 2 6 -6 10 -17 10 -11 0 -19 5 -18 12 4 20 -26 23 -32 2z m31 -26 c-10 -11
-19 -7 -22 10 -2 15 0 16 12 6 8 -6 12 -14 10 -16z"/>
<path d="M3830 991 c0 -6 5 -13 12 -17 6 -4 8 -3 4 4 -3 5 0 13 6 15 8 3 6 6
-4 6 -10 1 -18 -3 -18 -8z"/>
<path d="M3987 989 c7 -7 15 -10 18 -7 3 3 -2 9 -12 12 -14 6 -15 5 -6 -5z"/>
<path d="M4090 996 c0 -2 7 -7 16 -10 8 -3 12 -2 9 4 -6 10 -25 14 -25 6z"/>
<path d="M4337 985 c-4 -8 -3 -16 1 -19 4 -3 9 4 9 15 2 23 -3 25 -10 4z"/>
<path d="M4410 996 c0 -2 7 -7 16 -10 8 -3 12 -2 9 4 -6 10 -25 14 -25 6z"/>
<path d="M4786 992 c-3 -5 1 -9 9 -9 8 0 12 4 9 9 -3 4 -7 8 -9 8 -2 0 -6 -4
-9 -8z"/>
<path d="M5173 985 c0 -8 4 -12 9 -9 5 3 6 10 3 15 -9 13 -12 11 -12 -6z"/>
<path d="M1220 970 c-9 -6 -10 -10 -3 -10 6 0 15 5 18 10 8 12 4 12 -15 0z"/>
<path d="M1955 971 c-3 -5 -2 -12 3 -15 5 -3 9 1 9 9 0 17 -3 19 -12 6z"/>
<path d="M2070 970 c0 -5 5 -10 11 -10 5 0 7 5 4 10 -3 6 -8 10 -11 10 -2 0
-4 -4 -4 -10z"/>
<path d="M2125 970 c3 -5 8 -10 11 -10 2 0 4 5 4 10 0 6 -5 10 -11 10 -5 0 -7
-4 -4 -10z"/>
<path d="M3779 963 c-13 -15 -12 -15 9 -4 23 12 28 21 13 21 -5 0 -15 -7 -22
-17z"/>
<path d="M4055 971 c-3 -5 -2 -12 3 -15 5 -3 9 1 9 9 0 17 -3 19 -12 6z"/>
<path d="M2146 953 c-6 -14 -5 -15 5 -6 7 7 10 15 7 18 -3 3 -9 -2 -12 -12z"/>
<path d="M2177 963 c-4 -3 -7 -11 -7 -17 0 -6 5 -5 12 2 6 6 9 14 7 17 -3 3
-9 2 -12 -2z"/>
<path d="M2110 950 c0 -5 5 -10 11 -10 5 0 7 5 4 10 -3 6 -8 10 -11 10 -2 0
-4 -4 -4 -10z"/>
<path d="M2181 931 c-10 -7 -7 -9 12 -8 14 1 23 5 20 10 -6 9 -15 9 -32 -2z"/>
<path d="M3690 936 c0 -2 7 -7 16 -10 8 -3 12 -2 9 4 -6 10 -25 14 -25 6z"/>
<path d="M3735 931 c-3 -5 -2 -12 3 -15 5 -3 9 1 9 9 0 17 -3 19 -12 6z"/>
<path d="M3856 923 c-6 -14 -5 -15 5 -6 7 7 10 15 7 18 -3 3 -9 -2 -12 -12z"/>
<path d="M2227 916 c-4 -10 -1 -13 8 -9 8 3 12 9 9 14 -7 12 -11 11 -17 -5z"/>
<path d="M3271 896 c-16 -17 -18 -23 -6 -23 19 0 49 33 37 41 -5 3 -19 -5 -31
-18z m29 10 c0 -2 -8 -10 -17 -17 -16 -13 -17 -12 -4 4 13 16 21 21 21 13z"/>
<path d="M3680 910 c-9 -6 -10 -10 -3 -10 6 0 15 5 18 10 8 12 4 12 -15 0z"/>
<path d="M3640 901 c0 -6 4 -13 10 -16 6 -3 7 1 4 9 -7 18 -14 21 -14 7z"/>
<path d="M2246 892 c-3 -5 1 -9 9 -9 8 0 15 4 15 9 0 4 -4 8 -9 8 -6 0 -12 -4
-15 -8z"/>
<path d="M3710 886 c7 -7 13 -7 20 0 6 6 3 10 -10 10 -13 0 -16 -4 -10 -10z"/>
<path d="M2176 863 c-6 -14 -5 -15 5 -6 7 7 10 15 7 18 -3 3 -9 -2 -12 -12z"/>
<path d="M3570 856 c0 -8 4 -17 9 -20 5 -4 7 3 4 14 -6 23 -13 26 -13 6z"/>
<path d="M3656 857 c3 -10 9 -15 12 -12 3 3 0 11 -7 18 -10 9 -11 8 -5 -6z"/>
<path d="M3211 846 c-6 -7 -7 -17 -3 -21 4 -5 -1 -5 -10 -2 -12 4 -15 2 -11
-9 7 -20 15 -17 36 11 18 25 7 45 -12 21z"/>
<path d="M3633 845 c0 -8 4 -12 9 -9 5 3 6 10 3 15 -9 13 -12 11 -12 -6z"/>
<path d="M2296 842 c-2 -4 4 -8 14 -8 10 0 16 4 14 8 -3 4 -9 8 -14 8 -5 0
-11 -4 -14 -8z"/>
<path d="M3559 817 c8 -9 16 -15 19 -12 3 3 12 -1 21 -8 14 -11 14 -10 2 6 -8
9 -16 15 -19 12 -3 -3 -12 1 -21 8 -14 11 -14 10 -2 -6z"/>
<path d="M2295 810 c-3 -5 -1 -10 4 -10 6 0 11 5 11 10 0 6 -2 10 -4 10 -3 0
-8 -4 -11 -10z"/>
<path d="M3134 788 c-19 -23 -19 -23 2 -5 11 9 24 14 29 10 4 -5 5 -2 1 5 -9
16 -10 16 -32 -10z"/>
<path d="M3501 787 c2 -1 13 -9 24 -17 19 -14 19 -14 6 3 -7 9 -18 17 -24 17
-6 0 -8 -1 -6 -3z"/>
<path d="M3468 763 c7 -3 16 -2 19 1 4 3 -2 6 -13 5 -11 0 -14 -3 -6 -6z"/>
<path d="M2396 748 c3 -5 10 -6 15 -3 13 9 11 12 -6 12 -8 0 -12 -4 -9 -9z"/>
<path d="M3084 751 c2 -3 -2 -11 -9 -18 -9 -8 -15 -9 -19 -2 -2 5 -3 4 -2 -2
1 -7 12 -13 24 -14 11 -1 19 2 16 7 -3 5 -1 15 5 22 8 9 7 13 -4 13 -8 0 -13
-3 -11 -6z"/>
<path d="M3433 741 c0 -11 6 -19 12 -18 5 1 9 -4 7 -11 -1 -8 2 -11 8 -7 8 5
6 13 -4 24 -9 10 -13 21 -9 24 3 4 1 7 -5 7 -6 0 -10 -9 -9 -19z"/>
<path d="M3394 728 c-4 -6 -3 -8 4 -4 5 3 13 0 15 -6 3 -8 6 -6 6 5 1 19 -14
23 -25 5z"/>
<path d="M3495 730 c3 -5 8 -10 11 -10 2 0 4 5 4 10 0 6 -5 10 -11 10 -5 0 -7
-4 -4 -10z"/>
<path d="M2492 708 c2 -7 -5 -12 -16 -11 -13 1 -15 -2 -7 -10 8 -8 15 -7 27 5
11 11 13 18 5 23 -7 4 -10 1 -9 -7z"/>
<path d="M2524 702 c0 -10 6 -19 13 -19 8 0 9 6 2 19 -5 10 -11 18 -12 18 -2
0 -3 -8 -3 -18z"/>
<path d="M2975 690 c-3 -5 -1 -10 4 -10 6 0 11 5 11 10 0 6 -2 10 -4 10 -3 0
-8 -4 -11 -10z"/>
<path d="M2548 663 c7 -3 16 -2 19 1 4 3 -2 6 -13 5 -11 0 -14 -3 -6 -6z"/>
<path d="M2606 645 c4 -8 8 -15 10 -15 2 0 4 7 4 15 0 8 -4 15 -10 15 -5 0 -7
-7 -4 -15z"/>
<path d="M3240 645 c-7 -8 -9 -15 -6 -15 4 0 14 7 22 15 9 8 11 15 6 15 -5 0
-15 -7 -22 -15z"/>
<path d="M2559 648 c-6 -21 -5 -37 2 -32 5 3 6 10 3 16 -5 8 -1 9 10 5 10 -4
15 -3 11 3 -5 9 -24 14 -26 8z"/>
<path d="M2630 629 c0 -5 5 -7 10 -4 6 3 10 8 10 11 0 2 -4 4 -10 4 -5 0 -10
-5 -10 -11z"/>
<path d="M3350 626 c7 -7 13 -7 20 0 6 6 3 10 -10 10 -13 0 -16 -4 -10 -10z"/>
<path d="M3275 620 c-4 -6 -11 -8 -16 -5 -5 4 -9 1 -9 -4 0 -16 16 -13 30 4 7
8 10 15 7 15 -3 0 -9 -5 -12 -10z"/>
<path d="M2585 610 c-3 -6 1 -7 9 -4 18 7 21 14 7 14 -6 0 -13 -4 -16 -10z"/>
<path d="M2650 610 c0 -5 5 -10 10 -10 6 0 10 5 10 10 0 6 -4 10 -10 10 -5 0
-10 -4 -10 -10z"/>
<path d="M2833 605 c0 -8 4 -15 9 -15 4 0 8 7 8 15 0 8 -4 15 -8 15 -5 0 -9
-7 -9 -15z"/>
<path d="M3315 610 c3 -5 8 -10 11 -10 2 0 4 5 4 10 0 6 -5 10 -11 10 -5 0 -7
-4 -4 -10z"/>
<path d="M3214 585 c-4 -8 -9 -13 -13 -11 -4 3 -7 -6 -7 -19 0 -21 10 -26 11
-7 1 4 6 17 13 30 7 12 10 22 7 22 -3 0 -8 -7 -11 -15z"/>
<path d="M2673 575 c0 -7 6 -11 14 -8 7 3 13 6 13 8 0 2 -6 5 -13 8 -8 3 -14
-1 -14 -8z"/>
<path d="M2732 570 c0 -14 2 -19 5 -12 2 6 2 18 0 25 -3 6 -5 1 -5 -13z"/>
<path d="M3316 577 c3 -10 9 -15 12 -12 3 3 0 11 -7 18 -10 9 -11 8 -5 -6z"/>
<path d="M3225 550 c-3 -6 1 -7 9 -4 18 7 21 14 7 14 -6 0 -13 -4 -16 -10z"/>
<path d="M2790 535 c0 -5 5 -17 10 -25 5 -8 10 -10 10 -5 0 6 -5 17 -10 25 -5
8 -10 11 -10 5z"/>
<path d="M2816 525 c4 -8 8 -15 10 -15 2 0 4 7 4 15 0 8 -4 15 -10 15 -5 0 -7
-7 -4 -15z"/>
<path d="M3056 525 c4 -8 8 -15 10 -15 2 0 4 7 4 15 0 8 -4 15 -10 15 -5 0 -7
-7 -4 -15z"/>
<path d="M2747 509 c7 -7 15 -10 18 -7 3 3 -2 9 -12 12 -14 6 -15 5 -6 -5z"/>
<path d="M2847 508 c7 -8 10 -18 6 -22 -4 -4 1 -4 11 0 13 5 17 4 12 -4 -5 -8
-2 -10 9 -6 9 4 15 7 13 8 -2 1 -16 10 -33 21 -21 13 -26 14 -18 3z"/>
<path d="M3095 511 c-6 -11 13 -26 22 -17 4 3 1 6 -6 6 -7 0 -9 5 -6 10 3 6 4
10 1 10 -3 0 -7 -4 -11 -9z"/>
<path d="M3215 510 c3 -5 8 -10 11 -10 2 0 4 5 4 10 0 6 -5 10 -11 10 -5 0 -7
-4 -4 -10z"/>
<path d="M3001 499 c-1 -9 5 -19 12 -22 8 -3 14 1 14 9 0 7 -4 11 -8 8 -4 -2
-10 2 -12 8 -4 8 -6 7 -6 -3z"/>
<path d="M2945 490 c-3 -5 -2 -10 4 -10 5 0 13 5 16 10 3 6 2 10 -4 10 -5 0
-13 -4 -16 -10z"/>
<path d="M3070 491 c0 -6 4 -13 10 -16 6 -3 7 1 4 9 -7 18 -14 21 -14 7z"/>
<path d="M2833 464 c16 -20 52 -30 41 -12 -4 5 -9 7 -12 4 -3 -3 -15 2 -26 11
-21 18 -21 18 -3 -3z"/>
<path d="M3130 469 c0 -5 5 -7 10 -4 6 3 10 8 10 11 0 2 -4 4 -10 4 -5 0 -10
-5 -10 -11z"/>
<path d="M2913 445 c0 -8 4 -12 9 -9 4 3 8 9 8 15 0 5 -4 9 -8 9 -5 0 -9 -7
-9 -15z"/>
<path d="M3006 448 c3 -5 10 -6 15 -3 13 9 11 12 -6 12 -8 0 -12 -4 -9 -9z"/>
<path d="M2987 429 c7 -7 15 -10 18 -7 3 3 -2 9 -12 12 -14 6 -15 5 -6 -5z"/>
</g>
</svg>
